<svg version="1.1" id="Layer_1" xmlns="http://www.w3.org/2000/svg" xmlns:xlink="http://www.w3.org/1999/xlink" x="0px" y="0px"
	 width="100%" viewBox="0 0 180 180" enable-background="new 0 0 180 180" xml:space="preserve">
<path fill="#0153FF" opacity="1.000000" stroke="none" 
	d="
M181.000000,72.000000 
	C181.000000,84.354225 181.000000,96.708458 180.682037,109.207672 
	C179.911911,110.176170 179.240509,110.949768 179.040024,111.830559 
	C175.213989,128.640381 167.010635,143.274429 154.937744,155.225739 
	C143.007751,167.035583 128.634689,175.375000 111.927307,179.068909 
	C111.179123,179.234299 110.637718,180.334961 110.000000,181.000000 
	C97.645775,181.000000 85.291542,181.000000 72.792313,180.682037 
	C71.823792,179.911896 71.050179,179.240509 70.169365,179.040009 
	C53.359745,175.213608 38.725506,167.010651 26.774220,154.937714 
	C14.964440,143.007721 6.625110,128.634674 2.931190,111.927376 
	C2.765763,111.179169 1.665066,110.637741 1.000001,110.000000 
	C1.000000,97.645775 1.000000,85.291542 1.317955,72.792313 
	C2.088087,71.823799 2.759499,71.050194 2.959997,70.169395 
	C6.786424,53.359779 14.989344,38.725498 27.062281,26.774170 
	C38.992294,14.964328 53.365433,6.625119 70.072731,2.931123 
	C70.820900,2.765702 71.362297,1.665042 72.000000,1.000000 
	C84.354225,1.000000 96.708458,1.000000 109.207687,1.317958 
	C110.176216,2.088078 110.949829,2.759471 111.830643,2.959961 
	C128.640335,6.786153 143.274445,14.989319 155.225723,27.062191 
	C167.035538,38.992146 175.374756,53.365231 179.068878,70.072418 
	C179.234329,70.820694 180.334961,71.362190 181.000000,72.000000 
M130.207001,41.266895 
	C116.205971,30.455246 100.315239,26.075066 82.863411,28.235998 
	C56.938217,31.446129 35.931087,50.437122 29.655996,75.739777 
	C23.403761,100.950256 33.112488,127.453674 54.057121,142.351318 
	C75.662552,157.718979 103.819183,158.444290 125.796997,143.824371 
	C142.585098,132.656723 151.761581,116.754318 154.117188,96.424088 
	C143.284653,96.424088 132.858109,96.424088 122.484779,96.424088 
	C115.965569,115.740501 103.358803,124.674309 86.283051,122.201340 
	C71.134506,120.007469 59.719097,107.018723 59.312767,91.513870 
	C58.935417,77.114822 69.847427,63.116890 83.768562,60.155319 
	C91.362946,58.539696 98.670456,59.347309 105.575699,62.959320 
	C114.841499,67.806114 120.071602,75.763489 122.412178,85.599091 
	C133.067429,85.599091 143.351028,85.599091 154.051010,85.599091 
	C152.222153,67.557808 144.434998,53.098648 130.207001,41.266895 
z"/>
<path fill="#000000" opacity="1.000000" stroke="none" 
	d="
M71.531342,1.000000 
	C71.362297,1.665042 70.820900,2.765702 70.072731,2.931123 
	C53.365433,6.625119 38.992294,14.964328 27.062281,26.774170 
	C14.989344,38.725498 6.786424,53.359779 2.959997,70.169395 
	C2.759499,71.050194 2.088087,71.823799 1.317955,72.323654 
	C1.000000,48.406475 1.000000,24.812954 1.000000,1.000000 
	C24.353769,1.000000 47.708225,1.000000 71.531342,1.000000 
z"/>
<path fill="#000000" opacity="1.000000" stroke="none" 
	d="
M181.000000,71.531342 
	C180.334961,71.362190 179.234329,70.820694 179.068878,70.072418 
	C175.374756,53.365231 167.035538,38.992146 155.225723,27.062191 
	C143.274445,14.989319 128.640335,6.786153 111.830643,2.959961 
	C110.949829,2.759471 110.176216,2.088078 109.676346,1.317958 
	C133.593521,1.000000 157.187027,1.000000 181.000000,1.000000 
	C181.000000,24.353769 181.000000,47.708225 181.000000,71.531342 
z"/>
<path fill="#000000" opacity="1.000000" stroke="none" 
	d="
M1.000001,110.468658 
	C1.665066,110.637741 2.765763,111.179169 2.931190,111.927376 
	C6.625110,128.634674 14.964440,143.007721 26.774220,154.937714 
	C38.725506,167.010651 53.359745,175.213608 70.169365,179.040009 
	C71.050179,179.240509 71.823792,179.911896 72.323654,180.682037 
	C48.406475,181.000000 24.812954,181.000000 1.000000,181.000000 
	C1.000000,157.646225 1.000000,134.291779 1.000001,110.468658 
z"/>
<path fill="#000000" opacity="1.000000" stroke="none" 
	d="
M110.468658,181.000000 
	C110.637718,180.334961 111.179123,179.234299 111.927307,179.068909 
	C128.634689,175.375000 143.007751,167.035583 154.937744,155.225739 
	C167.010635,143.274429 175.213989,128.640381 179.040024,111.830559 
	C179.240509,110.949768 179.911911,110.176170 180.682037,109.676331 
	C181.000000,133.593521 181.000000,157.187042 181.000000,181.000000 
	C157.646225,181.000000 134.291779,181.000000 110.468658,181.000000 
z"/>
<path fill="#FDFDFF" opacity="1.000000" stroke="none" 
	d="
M130.476440,41.501144 
	C144.434998,53.098648 152.222153,67.557808 154.051010,85.599091 
	C143.351028,85.599091 133.067429,85.599091 122.412178,85.599091 
	C120.071602,75.763489 114.841499,67.806114 105.575699,62.959320 
	C98.670456,59.347309 91.362946,58.539696 83.768562,60.155319 
	C69.847427,63.116890 58.935417,77.114822 59.312767,91.513870 
	C59.719097,107.018723 71.134506,120.007469 86.283051,122.201340 
	C103.358803,124.674309 115.965569,115.740501 122.484779,96.424088 
	C132.858109,96.424088 143.284653,96.424088 154.117188,96.424088 
	C151.761581,116.754318 142.585098,132.656723 125.796997,143.824371 
	C103.819183,158.444290 75.662552,157.718979 54.057121,142.351318 
	C33.112488,127.453674 23.403761,100.950256 29.655996,75.739777 
	C35.931087,50.437122 56.938217,31.446129 82.863411,28.235998 
	C100.315239,26.075066 116.205971,30.455246 130.476440,41.501144 
z"/>
</svg>