<svg version="1.1" id="Layer_1" xmlns="http://www.w3.org/2000/svg" xmlns:xlink="http://www.w3.org/1999/xlink" x="0px" y="0px"
	 width="100%" viewBox="0 0 225 225" enable-background="new 0 0 225 225" xml:space="preserve">
<path fill="#FEC200" opacity="1.000000" stroke="none" 
	d="
M122.000000,226.000000 
	C81.333336,226.000000 41.166672,226.000000 1.000005,226.000000 
	C1.000004,151.000000 1.000004,76.000015 1.000002,1.000015 
	C75.999992,1.000010 150.999985,1.000010 225.999969,1.000005 
	C225.999985,75.999985 225.999985,150.999969 226.000000,225.999969 
	C191.500000,226.000000 157.000000,226.000000 122.000000,226.000000 
M118.465927,145.199799 
	C112.800743,145.200012 107.096626,144.800568 101.484703,145.347397 
	C98.011086,145.685883 93.772247,146.515015 91.431534,148.751175 
	C78.449875,161.153046 65.944984,174.053986 53.122799,186.938843 
	C57.449883,191.142105 61.692364,195.263199 66.143280,199.586761 
	C67.112160,198.679214 68.214249,197.702225 69.254906,196.663651 
	C81.046745,184.895676 92.807137,173.096054 104.623436,161.352722 
	C110.532494,155.480133 117.023041,155.490051 123.056938,161.267059 
	C124.500610,162.649261 125.894791,164.083420 127.303787,165.501556 
	C138.659271,176.930817 150.012833,188.361969 161.088684,199.512360 
	C165.654297,194.927048 169.827576,190.735779 174.350571,186.193268 
	C163.883301,175.829422 152.878891,165.628311 142.730774,154.636642 
	C136.192963,147.555374 129.043976,143.839188 118.465927,145.199799 
M49.166523,87.333298 
	C54.575653,92.754913 60.021217,98.140778 65.384453,103.607414 
	C71.706612,110.051476 71.672890,116.335030 65.313339,122.715836 
	C53.561108,134.507370 41.775730,146.265854 30.020098,158.054016 
	C29.021664,159.055206 28.142736,160.175568 27.208292,161.240570 
	C27.735445,160.947876 28.262598,160.655182 28.789753,160.362488 
	C32.649040,164.822159 36.508327,169.281815 40.486988,173.879410 
	C48.648846,165.673035 56.706631,157.720978 64.598267,149.607346 
	C84.730194,128.909073 81.337730,137.550751 82.066490,107.684944 
	C82.300720,98.086052 79.526962,90.933083 72.467461,84.375313 
	C61.418304,74.111435 51.162971,62.993008 40.931252,52.602043 
	C36.081795,57.328304 31.855131,61.447598 27.462044,65.729080 
	C34.509811,72.752823 41.581234,79.800133 49.166523,87.333298 
M154.130829,85.632278 
	C147.500610,90.774666 145.108215,97.475883 145.777664,105.825096 
	C146.321869,112.612083 145.485764,119.511627 146.061356,126.293396 
	C146.351440,129.711288 147.555054,133.801590 149.823242,136.176758 
	C162.110184,149.043320 174.858917,161.468887 186.992737,173.591003 
	C191.457611,169.356720 195.758377,165.278061 200.212906,161.053589 
	C199.135010,159.924469 198.132187,158.833420 197.086655,157.784973 
	C185.329849,145.995682 173.514511,134.264160 161.827042,122.406578 
	C156.070465,116.566208 156.254364,109.854187 162.061859,103.990021 
	C166.398132,99.611427 170.736374,95.233788 175.134567,90.917725 
	C183.650024,82.561279 192.208374,74.248543 200.040802,66.608459 
	C195.434586,61.456474 191.485321,57.039268 187.213623,52.261440 
	C176.193283,63.381012 165.413376,74.257980 154.130829,85.632278 
M149.887375,64.387482 
	C158.163208,56.189392 166.439026,47.991302 174.393356,40.111698 
	C170.046082,35.416965 166.006989,31.055044 161.609222,26.305780 
	C148.628326,39.387417 136.000687,52.178913 123.293137,64.890549 
	C117.233543,70.952095 110.576935,70.902077 104.553551,64.902016 
	C95.463707,55.847370 86.340057,46.825214 77.358612,37.663921 
	C73.667358,33.898750 70.308418,29.807787 67.041588,26.138279 
	C61.690720,31.311537 57.425549,35.435131 53.171509,39.547962 
	C53.427811,39.904900 53.588791,40.208126 53.820671,40.440643 
	C63.586571,50.233330 73.872116,59.569557 82.971672,69.945930 
	C90.573059,78.613914 99.040489,81.796646 110.529671,81.333885 
	C137.345657,80.253784 129.614182,84.281815 149.887375,64.387482 
z"/>
<path fill="#050300" opacity="1.000000" stroke="none" 
	d="
M118.958168,145.199799 
	C129.043976,143.839188 136.192963,147.555374 142.730774,154.636642 
	C152.878891,165.628311 163.883301,175.829422 174.350571,186.193268 
	C169.827576,190.735779 165.654297,194.927048 161.088684,199.512360 
	C150.012833,188.361969 138.659271,176.930817 127.303787,165.501556 
	C125.894791,164.083420 124.500610,162.649261 123.056938,161.267059 
	C117.023041,155.490051 110.532494,155.480133 104.623436,161.352722 
	C92.807137,173.096054 81.046745,184.895676 69.254906,196.663651 
	C68.214249,197.702225 67.112160,198.679214 66.143280,199.586761 
	C61.692364,195.263199 57.449883,191.142105 53.122799,186.938843 
	C65.944984,174.053986 78.449875,161.153046 91.431534,148.751175 
	C93.772247,146.515015 98.011086,145.685883 101.484703,145.347397 
	C107.096626,144.800568 112.800743,145.200012 118.958168,145.199799 
z"/>
<path fill="#040300" opacity="1.000000" stroke="none" 
	d="
M48.909592,87.090370 
	C41.581234,79.800133 34.509811,72.752823 27.462044,65.729080 
	C31.855131,61.447598 36.081795,57.328304 40.931252,52.602043 
	C51.162971,62.993008 61.418304,74.111435 72.467461,84.375313 
	C79.526962,90.933083 82.300720,98.086052 82.066490,107.684944 
	C81.337730,137.550751 84.730194,128.909073 64.598267,149.607346 
	C56.706631,157.720978 48.648846,165.673035 40.486988,173.879410 
	C36.508327,169.281815 32.649040,164.822159 28.789753,160.362488 
	C28.262598,160.655182 27.735445,160.947876 27.208292,161.240570 
	C28.142736,160.175568 29.021664,159.055206 30.020098,158.054016 
	C41.775730,146.265854 53.561108,134.507370 65.313339,122.715836 
	C71.672890,116.335030 71.706612,110.051476 65.384453,103.607414 
	C60.021217,98.140778 54.575653,92.754913 48.909592,87.090370 
z"/>
<path fill="#040300" opacity="1.000000" stroke="none" 
	d="
M154.382141,85.383614 
	C165.413376,74.257980 176.193283,63.381012 187.213623,52.261440 
	C191.485321,57.039268 195.434586,61.456474 200.040802,66.608459 
	C192.208374,74.248543 183.650024,82.561279 175.134567,90.917725 
	C170.736374,95.233788 166.398132,99.611427 162.061859,103.990021 
	C156.254364,109.854187 156.070465,116.566208 161.827042,122.406578 
	C173.514511,134.264160 185.329849,145.995682 197.086655,157.784973 
	C198.132187,158.833420 199.135010,159.924469 200.212906,161.053589 
	C195.758377,165.278061 191.457611,169.356720 186.992737,173.591003 
	C174.858917,161.468887 162.110184,149.043320 149.823242,136.176758 
	C147.555054,133.801590 146.351440,129.711288 146.061356,126.293396 
	C145.485764,119.511627 146.321869,112.612083 145.777664,105.825096 
	C145.108215,97.475883 147.500610,90.774666 154.382141,85.383614 
z"/>
<path fill="#020100" opacity="1.000000" stroke="none" 
	d="
M149.636414,64.636551 
	C129.614182,84.281815 137.345657,80.253784 110.529671,81.333885 
	C99.040489,81.796646 90.573059,78.613914 82.971672,69.945930 
	C73.872116,59.569557 63.586571,50.233330 53.820671,40.440643 
	C53.588791,40.208126 53.427811,39.904900 53.171509,39.547962 
	C57.425549,35.435131 61.690720,31.311537 67.041588,26.138279 
	C70.308418,29.807787 73.667358,33.898750 77.358612,37.663921 
	C86.340057,46.825214 95.463707,55.847370 104.553551,64.902016 
	C110.576935,70.902077 117.233543,70.952095 123.293137,64.890549 
	C136.000687,52.178913 148.628326,39.387417 161.609222,26.305780 
	C166.006989,31.055044 170.046082,35.416965 174.393356,40.111698 
	C166.439026,47.991302 158.163208,56.189392 149.636414,64.636551 
z"/>
</svg>