<svg version="1.1" id="Layer_1" xmlns="http://www.w3.org/2000/svg" xmlns:xlink="http://www.w3.org/1999/xlink" x="0px" y="0px"
	 width="100%" viewBox="0 0 170 170" enable-background="new 0 0 170 170" xml:space="preserve">
<path fill="#F2F2FE" opacity="1.000000" stroke="none" 
	d="
M171.000000,22.999998 
	C171.000000,64.687561 171.000000,106.375122 170.681564,148.273361 
	C166.154953,158.549438 159.578491,166.236832 148.946884,169.887939 
	C148.848846,169.921600 148.977295,170.614746 149.000000,171.000000 
	C107.979103,171.000000 66.958206,171.000000 25.384480,170.645203 
	C13.406417,166.826096 5.587247,159.669403 2.040864,148.100479 
	C1.908275,147.667938 1.356454,147.363907 0.999999,147.000000 
	C1.000000,106.645775 1.000000,66.291542 1.344499,25.357613 
	C4.627845,15.214750 10.243409,7.918058 19.500826,3.683530 
	C21.355080,2.835357 23.168013,1.896853 25.000000,1.000000 
	C65.354225,1.000000 105.708458,1.000000 146.462601,1.381905 
	C157.673538,4.671924 165.212524,11.218122 169.237106,21.749634 
	C169.450974,22.309256 170.395584,22.589626 171.000000,22.999998 
M30.294052,127.498932 
	C30.619572,127.637421 30.945091,127.775909 31.663231,127.932800 
	C31.663231,127.932800 32.019653,128.098495 32.291645,128.517807 
	C32.589031,128.658722 32.886414,128.799622 33.629501,128.994858 
	C33.629501,128.994858 34.038445,129.180237 34.288399,129.554016 
	C34.507980,129.777466 34.772831,129.911606 35.002789,129.957703 
	C35.002789,129.957703 35.064114,129.906067 35.039886,130.664505 
	C36.831779,132.101028 38.544250,133.653046 40.431450,134.951004 
	C44.910397,138.031479 49.472157,140.991547 53.738304,144.106232 
	C53.825432,144.070618 53.912560,144.035004 54.731071,144.084213 
	C56.418671,145.655899 58.106274,147.227570 59.880634,148.880051 
	C60.275120,147.528931 60.655682,146.225494 61.610783,144.973938 
	C61.992500,145.008118 62.374218,145.042282 63.007648,145.535690 
	C63.353306,145.925919 63.698967,146.316162 64.025238,147.477066 
	C65.350311,148.987000 66.675377,150.496948 68.012093,152.753342 
	C68.612633,157.557526 71.658325,157.098251 75.491119,156.386292 
	C76.817123,156.201920 78.143127,156.017563 79.973320,155.791916 
	C80.386292,156.052490 80.799255,156.313080 80.965897,157.203583 
	C81.566208,160.537903 83.405312,158.750946 85.696182,157.991791 
	C91.273239,155.045212 96.850288,152.098618 103.078842,149.015640 
	C105.160934,147.709976 107.243027,146.404327 109.543701,144.830978 
	C109.543701,144.830978 109.477837,144.491714 109.557007,144.368149 
	C109.557007,144.368149 109.527412,144.511887 110.185677,144.646072 
	C112.822266,143.116211 115.458847,141.586349 118.780510,139.913010 
	C123.213211,137.291031 127.645912,134.669052 132.724335,131.803055 
	C137.603470,128.938934 142.482605,126.074806 147.910629,122.873856 
	C148.239227,121.924629 148.567825,120.975403 149.057175,119.225967 
	C149.004181,118.143349 148.951202,117.060722 149.030777,115.052574 
	C149.034241,94.553123 149.059494,74.053596 148.996185,53.554348 
	C148.991547,52.057728 148.345459,50.563080 147.441956,48.671047 
	C144.636353,47.081242 141.830750,45.491436 138.626328,43.458546 
	C137.746185,43.028183 136.866043,42.597820 135.459946,41.700275 
	C133.382523,40.573196 131.305099,39.446121 128.828369,37.840111 
	C125.886261,36.227268 122.944145,34.614426 119.562912,32.489857 
	C116.448639,30.792463 113.334373,29.095070 109.883804,26.849306 
	C103.622856,23.206831 97.457657,19.381344 91.046089,16.026731 
	C88.960548,14.935552 86.231407,15.074488 83.143326,14.843841 
	C81.506340,15.610381 79.869347,16.376921 77.631065,16.743534 
	C72.225578,12.667475 74.314125,18.656258 72.738701,20.591198 
	C72.233810,20.770481 71.728920,20.949764 70.504341,20.801155 
	C66.822891,19.015356 65.655479,20.516205 66.059464,24.073696 
	C66.059464,24.073696 66.160080,24.085001 65.668968,24.208181 
	C65.440956,24.446802 65.212936,24.685421 64.644585,25.413843 
	C64.097069,25.613953 63.549549,25.814062 62.490223,25.458998 
	C60.249969,25.643051 57.996025,25.727486 55.772457,26.032984 
	C51.790115,26.580124 52.490746,28.364998 54.347126,31.026602 
	C52.602814,32.033405 50.858505,33.040211 48.260468,34.012302 
	C44.413017,33.933296 40.618229,33.939705 39.748840,39.250584 
	C39.748840,39.250584 39.455856,39.272915 38.677574,39.177963 
	C36.290581,40.253105 33.961384,42.070698 31.505577,42.261868 
	C24.596142,42.799736 21.624849,47.446457 19.680498,52.944233 
	C18.754808,55.561680 18.981030,58.662491 19.035736,61.537682 
	C19.288452,74.819595 19.707247,88.098328 19.964455,101.380180 
	C20.025227,104.518402 20.132309,107.772224 19.398407,110.772354 
	C18.814770,113.158195 17.615414,114.938484 20.603218,116.590210 
	C21.226351,116.934692 21.111464,119.401131 20.673120,120.658318 
	C20.231323,121.925415 18.963581,122.904549 16.896141,125.427193 
	C21.601614,125.637169 24.880154,125.783478 28.624001,126.010147 
	C28.624001,126.010147 29.046165,126.221687 29.261524,126.567657 
	C29.447294,126.776497 29.672388,126.926277 29.993929,126.996964 
	C29.993929,126.996964 29.987169,127.057129 30.294052,127.498932 
M22.242828,39.866898 
	C23.123732,38.919888 24.004635,37.972881 24.885540,37.025875 
	C24.605658,36.549568 24.325777,36.073265 24.045895,35.596958 
	C21.864304,36.264248 19.658955,36.869987 17.536060,37.689362 
	C17.311646,37.775970 17.426729,39.728916 17.630503,39.777206 
	C18.903774,40.078972 20.247059,40.085327 22.242828,39.866898 
M33.588749,33.646145 
	C34.453148,34.026459 35.317543,34.406769 36.181942,34.787083 
	C36.276897,34.374451 36.371853,33.961819 36.466812,33.549187 
	C35.664757,33.441566 34.862701,33.333946 33.588749,33.646145 
M65.515984,17.422224 
	C65.515984,17.422224 65.573326,17.521999 65.515984,17.422224 
z"/>
<path fill="#09090C" opacity="1.000000" stroke="none" 
	d="
M24.531307,1.000000 
	C23.168013,1.896853 21.355080,2.835357 19.500826,3.683530 
	C10.243409,7.918058 4.627845,15.214750 1.344499,24.888954 
	C1.000000,17.073662 1.000000,9.147325 1.000000,1.000000 
	C8.686132,1.000000 16.374374,1.000000 24.531307,1.000000 
z"/>
<path fill="#070709" opacity="1.000000" stroke="none" 
	d="
M0.999999,147.468689 
	C1.356454,147.363907 1.908275,147.667938 2.040864,148.100479 
	C5.587247,159.669403 13.406417,166.826096 24.915821,170.645203 
	C17.073664,171.000000 9.147327,171.000000 1.000000,171.000000 
	C1.000000,163.313873 1.000000,155.625626 0.999999,147.468689 
z"/>
<path fill="#09090C" opacity="1.000000" stroke="none" 
	d="
M171.000000,22.531216 
	C170.395584,22.589626 169.450974,22.309256 169.237106,21.749634 
	C165.212524,11.218122 157.673538,4.671924 146.931259,1.381905 
	C154.923065,1.000000 162.846130,1.000000 171.000000,1.000000 
	C171.000000,8.019133 171.000000,15.040784 171.000000,22.531216 
z"/>
<path fill="#08080A" opacity="1.000000" stroke="none" 
	d="
M149.468781,171.000000 
	C148.977295,170.614746 148.848846,169.921600 148.946884,169.887939 
	C159.578491,166.236832 166.154953,158.549438 170.681564,148.742020 
	C171.000000,156.259567 171.000000,163.519135 171.000000,171.000000 
	C163.980728,171.000000 156.959152,171.000000 149.468781,171.000000 
z"/>
<path fill="#55719E" opacity="1.000000" stroke="none" 
	d="
M147.361740,123.210678 
	C142.482605,126.074806 137.603470,128.938934 132.091980,131.785736 
	C130.418289,131.225967 129.376953,130.683533 128.335632,130.141098 
	C132.635605,129.999664 132.016144,127.181755 132.111603,124.426804 
	C132.905563,123.825485 133.433090,123.366516 134.045883,123.157761 
	C140.538971,120.945816 142.093658,118.869545 142.095734,112.259155 
	C142.100601,96.657539 141.469788,81.020561 142.342789,65.467865 
	C142.848770,56.453835 140.591690,50.572311 131.886993,47.656391 
	C131.154678,47.411076 130.587875,46.671661 129.931961,45.804451 
	C129.689041,43.071079 129.458359,40.695061 129.227676,38.319046 
	C131.305099,39.446121 133.382523,40.573196 135.731857,42.260544 
	C136.573669,43.624580 137.143570,44.428345 137.713470,45.232113 
	C138.150696,44.788620 138.587921,44.345127 139.025146,43.901634 
	C141.830750,45.491436 144.636353,47.081242 147.719604,49.333038 
	C147.995316,57.292088 148.096893,64.590958 147.969193,71.885826 
	C147.728943,85.610168 147.317673,99.331642 147.121750,113.056366 
	C147.107971,114.021629 148.278427,115.003799 148.898224,115.978104 
	C148.951202,117.060722 149.004181,118.143349 148.646057,119.658257 
	C147.943878,121.130592 147.652817,122.170639 147.361740,123.210678 
z"/>
<path fill="#EAF1FD" opacity="1.000000" stroke="none" 
	d="
M28.158693,125.929779 
	C24.880154,125.783478 21.601614,125.637169 16.896141,125.427193 
	C18.963581,122.904549 20.231323,121.925415 20.673120,120.658318 
	C21.111464,119.401131 21.226351,116.934692 20.603218,116.590210 
	C17.615414,114.938484 18.814770,113.158195 19.398407,110.772354 
	C20.132309,107.772224 20.025227,104.518402 19.964455,101.380180 
	C19.707247,88.098328 19.288452,74.819595 19.035736,61.537682 
	C18.981030,58.662491 18.754808,55.561680 19.680498,52.944233 
	C21.624849,47.446457 24.596142,42.799736 31.505577,42.261868 
	C33.961384,42.070698 36.290581,40.253105 38.890266,39.520050 
	C36.696850,41.858345 34.290741,43.854549 31.678074,46.070656 
	C30.615868,47.088478 29.760225,47.886402 28.586838,48.712852 
	C26.844526,48.885551 25.419960,49.029720 23.647133,49.396034 
	C23.191408,51.433445 22.992922,53.248592 22.990438,55.064007 
	C22.962940,75.180916 23.113363,95.299767 22.852139,115.413383 
	C22.790277,120.176605 23.623573,123.810173 28.158693,125.929779 
z"/>
<path fill="#72AACB" opacity="1.000000" stroke="none" 
	d="
M28.391346,125.969963 
	C23.623573,123.810173 22.790277,120.176605 22.852139,115.413383 
	C23.113363,95.299767 22.962940,75.180916 22.990438,55.064007 
	C22.992922,53.248592 23.191408,51.433445 23.648720,49.850021 
	C24.523090,72.233887 25.520346,94.391701 25.248592,116.533951 
	C25.178312,122.260361 27.900558,122.884720 31.583515,124.896286 
	C31.347616,122.878632 31.179790,121.443207 31.353668,120.094711 
	C37.424576,123.135307 43.153778,126.088982 48.933430,129.271179 
	C48.983879,129.499695 49.074841,129.958801 48.836906,130.127930 
	C47.742664,132.111725 46.886353,133.926361 45.708134,135.658142 
	C41.945518,133.685532 38.504818,131.795792 35.064114,129.906067 
	C35.064114,129.906067 35.002789,129.957703 34.934456,129.749451 
	C34.651936,129.279297 34.376041,129.158981 34.038445,129.180237 
	C34.038445,129.180237 33.629501,128.994858 33.271713,128.751801 
	C32.615837,128.371994 32.317745,128.235245 32.019653,128.098495 
	C32.019653,128.098495 31.663231,127.932800 31.311148,127.704239 
	C30.635099,127.336166 30.311134,127.196648 29.987167,127.057129 
	C29.987169,127.057129 29.993929,126.996964 29.880894,126.807617 
	C29.608643,126.337967 29.368078,126.205772 29.046165,126.221687 
	C29.046165,126.221687 28.624001,126.010147 28.391346,125.969963 
z"/>
<path fill="#638BB1" opacity="1.000000" stroke="none" 
	d="
M83.796631,14.650791 
	C86.231407,15.074488 88.960548,14.935552 91.046089,16.026731 
	C97.457657,19.381344 103.622856,23.206831 109.894951,27.524021 
	C109.103897,29.872108 108.301704,31.545481 107.170807,33.163151 
	C100.565262,29.395166 94.288406,25.682884 88.047737,21.609430 
	C90.944939,16.261219 85.316521,16.790943 83.796631,14.650791 
z"/>
<path fill="#6D9EC4" opacity="1.000000" stroke="none" 
	d="
M46.030045,135.741013 
	C46.886353,133.926361 47.742664,132.111725 49.066154,130.126541 
	C49.533337,129.956009 49.984924,129.874390 50.188515,130.048737 
	C50.634995,130.484818 50.877884,130.746536 51.155312,131.235718 
	C51.371193,131.766388 51.635376,131.884613 52.227798,131.891205 
	C52.642220,131.988968 52.811234,132.013351 53.082748,132.250336 
	C53.185242,132.462936 53.584534,132.713211 53.584534,132.713211 
	C53.584534,132.713211 54.038666,132.587326 54.337406,132.680786 
	C55.040195,132.872131 55.444244,132.970001 56.038322,133.323944 
	C57.154850,134.032959 58.081348,134.485916 59.144524,135.029617 
	C59.281197,135.120361 59.609161,135.129898 59.787487,135.353973 
	C60.305424,135.738480 60.645035,135.898895 61.137131,136.284775 
	C61.790134,136.697815 62.290657,136.885391 62.935562,137.277664 
	C63.321072,137.746429 63.620205,137.870468 64.158760,137.948273 
	C64.340164,138.042099 64.741943,138.115646 64.933777,138.392975 
	C66.782112,139.765671 68.438614,140.861038 69.814957,142.151825 
	C68.496758,146.291122 65.451004,145.248260 62.755936,145.076447 
	C62.374218,145.042282 61.992500,145.008118 61.290016,144.734528 
	C60.969254,144.495117 60.897572,144.068619 61.134495,143.888184 
	C61.251915,143.207672 61.132408,142.707626 61.012901,142.207565 
	C60.344971,142.463226 59.677040,142.718887 58.660530,142.931747 
	C54.217976,140.506302 50.124008,138.123657 46.030045,135.741013 
z"/>
<path fill="#6C9EC4" opacity="1.000000" stroke="none" 
	d="
M49.114193,34.047012 
	C50.858505,33.040211 52.602814,32.033405 54.834358,30.684626 
	C56.548019,29.894539 57.774448,29.446428 59.235283,29.251635 
	C62.178612,28.782776 66.430565,30.363663 66.480690,25.050688 
	C68.953667,25.798058 71.026474,26.570518 72.876633,27.594652 
	C71.624451,28.371284 70.550728,28.825130 69.572639,29.432880 
	C63.736328,33.059368 57.922081,36.721363 52.038013,39.997498 
	C50.449207,35.648190 47.390259,38.269199 44.884823,37.876060 
	C44.767620,37.748768 44.528667,37.498444 44.781033,37.297752 
	C46.393661,36.080379 47.753925,35.063698 49.114193,34.047012 
z"/>
<path fill="#6897B9" opacity="1.000000" stroke="none" 
	d="
M62.881790,145.306061 
	C65.451004,145.248260 68.496758,146.291122 70.122238,142.202972 
	C71.816429,142.603622 72.923195,143.148514 74.266846,143.890839 
	C75.238731,144.425415 75.973732,144.762558 76.865059,145.318298 
	C77.343964,145.672592 77.666534,145.808319 78.258026,146.134430 
	C79.311989,146.713043 80.097031,147.101273 81.007561,147.687561 
	C81.444275,148.236145 81.755501,148.586670 81.866997,149.155334 
	C82.229576,152.421310 83.718109,152.840714 86.198296,150.863708 
	C86.362595,150.815186 86.701927,150.862534 87.003937,151.077332 
	C89.709351,156.113892 84.129555,154.999924 82.655579,157.064026 
	C81.980431,156.839813 81.596329,156.706741 81.212219,156.573669 
	C80.799255,156.313080 80.386292,156.052490 79.506042,155.539581 
	C77.695496,154.520432 76.352226,153.753601 75.004326,152.993546 
	C74.999695,153.000320 75.014389,152.992783 74.912201,152.797394 
	C74.625374,152.338699 74.372414,152.213272 73.766632,152.015182 
	C72.033020,151.018433 70.583908,150.232224 68.918655,149.221954 
	C67.149879,148.234070 65.597252,147.470230 64.044624,146.706390 
	C63.698967,146.316162 63.353306,145.925919 62.881790,145.306061 
z"/>
<path fill="#6995BC" opacity="1.000000" stroke="none" 
	d="
M73.099274,27.342979 
	C71.026474,26.570518 68.953667,25.798058 66.459061,25.030670 
	C66.037262,25.035740 65.996048,24.995125 66.066818,24.772957 
	C66.137581,24.550789 66.160080,24.085001 66.160080,24.085001 
	C66.160080,24.085001 66.059464,24.073696 66.417297,24.053877 
	C68.258102,23.065722 69.741066,22.097383 71.224030,21.129047 
	C71.728920,20.949764 72.233810,20.770481 73.230087,20.309141 
	C75.225105,19.065878 76.728737,18.104670 78.232361,17.143461 
	C79.869347,16.376921 81.506340,15.610381 83.469978,14.747316 
	C85.316521,16.790943 90.944939,16.261219 87.651703,21.587784 
	C85.243492,22.629042 83.250633,23.287155 81.295563,24.043005 
	C78.548759,25.104952 75.830017,26.239489 73.099274,27.342979 
z"/>
<path fill="#5E87AE" opacity="1.000000" stroke="none" 
	d="
M109.325119,145.098679 
	C107.243027,146.404327 105.160934,147.709976 102.322739,149.040985 
	C99.374039,148.033295 97.181435,147.000275 95.191299,145.698639 
	C101.601837,141.962204 107.809914,138.494370 114.197922,135.280151 
	C114.914696,136.356705 115.451538,137.179642 115.712341,138.205231 
	C113.466682,140.442535 111.497047,142.477219 109.527420,144.511887 
	C109.527412,144.511887 109.557007,144.368149 109.295120,144.327377 
	C108.904167,144.369049 108.775101,144.451492 108.646027,144.533936 
	C108.872391,144.722183 109.098755,144.910431 109.325119,145.098679 
z"/>
<path fill="#5A78A0" opacity="1.000000" stroke="none" 
	d="
M115.988373,138.002594 
	C115.451538,137.179642 114.914696,136.356705 114.419174,135.020721 
	C120.268593,131.233566 126.076683,127.959435 131.884781,124.685310 
	C132.016144,127.181755 132.635605,129.999664 128.335632,130.141098 
	C129.376953,130.683533 130.418289,131.225967 131.769104,131.907745 
	C127.645912,134.669052 123.213211,137.291031 118.185043,139.824875 
	C117.055840,139.158691 116.522110,138.580643 115.988373,138.002594 
z"/>
<path fill="#5E80A8" opacity="1.000000" stroke="none" 
	d="
M107.499504,33.218853 
	C108.301704,31.545481 109.103897,29.872108 110.063095,27.798206 
	C113.334373,29.095070 116.448639,30.792463 119.786415,33.090141 
	C120.790184,35.003937 121.570450,36.317444 122.441208,37.783291 
	C121.672028,38.699921 120.842262,39.688759 119.694458,40.584259 
	C115.417450,38.066898 111.458481,35.642876 107.499504,33.218853 
z"/>
<path fill="#638EAE" opacity="1.000000" stroke="none" 
	d="
M94.988838,145.967239 
	C97.181435,147.000275 99.374039,148.033295 101.996986,149.109177 
	C96.850288,152.098618 91.273239,155.045212 85.035248,158.011261 
	C83.898415,157.738876 83.422523,157.447021 82.946625,157.155151 
	C84.129555,154.999924 89.709351,156.113892 87.167664,150.871887 
	C87.412041,150.099716 87.794693,149.747772 88.503876,149.267609 
	C90.883217,148.081985 92.936028,147.024612 94.988838,145.967239 
z"/>
<path fill="#6CA9C9" opacity="1.000000" stroke="none" 
	d="
M31.884636,45.850754 
	C34.290741,43.854549 36.696850,41.858345 39.279404,39.567528 
	C39.455856,39.272915 39.748840,39.250584 40.224083,39.135925 
	C41.975773,38.513660 43.252220,38.006050 44.528667,37.498444 
	C44.528667,37.498444 44.767620,37.748768 44.885429,38.263046 
	C45.335728,40.519291 45.668213,42.261257 45.775459,44.246086 
	C44.574352,45.009083 43.598476,45.529217 42.533718,46.093727 
	C42.444836,46.138103 42.140388,46.384945 41.849815,46.555840 
	C41.349689,46.807934 41.140133,46.889126 40.558777,46.927444 
	C37.419525,46.539967 34.652081,46.195358 31.884636,45.850754 
z"/>
<path fill="#51688A" opacity="1.000000" stroke="none" 
	d="
M148.964493,115.515335 
	C148.278427,115.003799 147.107971,114.021629 147.121750,113.056366 
	C147.317673,99.331642 147.728943,85.610168 147.969193,71.885826 
	C148.096893,64.590958 147.995316,57.292088 147.997421,49.531273 
	C148.345459,50.563080 148.991547,52.057728 148.996185,53.554348 
	C149.059494,74.053596 149.034241,94.553123 148.964493,115.515335 
z"/>
<path fill="#EAF1FD" opacity="1.000000" stroke="none" 
	d="
M45.708130,135.658142 
	C50.124008,138.123657 54.217976,140.506302 58.822609,143.166122 
	C59.854706,143.651733 60.376141,143.860184 60.897572,144.068619 
	C60.897572,144.068619 60.969254,144.495117 61.002747,144.708588 
	C60.655682,146.225494 60.275120,147.528931 59.880634,148.880051 
	C58.106274,147.227570 56.418671,145.655899 54.365536,144.042114 
	C54.000000,144.000000 54.000450,144.000275 54.000450,144.000275 
	C49.472157,140.991547 44.910397,138.031479 40.431450,134.951004 
	C38.544250,133.653046 36.831779,132.101028 35.052002,130.285278 
	C38.504818,131.795792 41.945518,133.685532 45.708130,135.658142 
z"/>
<path fill="#5D7BA3" opacity="1.000000" stroke="none" 
	d="
M120.012489,40.677593 
	C120.842262,39.688759 121.672028,38.699921 122.441208,37.783291 
	C121.570450,36.317444 120.790184,35.003937 120.005981,33.346001 
	C122.944145,34.614426 125.886261,36.227268 129.028015,38.079575 
	C129.458359,40.695061 129.689041,43.071079 129.578506,45.746994 
	C126.162346,44.257126 123.087418,42.467358 120.012489,40.677593 
z"/>
<path fill="#F3F2FF" opacity="1.000000" stroke="none" 
	d="
M69.134796,149.445999 
	C70.583908,150.232224 72.033020,151.018433 73.882217,152.191559 
	C74.484062,152.791199 74.728096,152.929306 75.014389,152.992783 
	C75.014389,152.992783 74.999695,153.000320 75.000793,153.370255 
	C75.001549,154.493454 75.001205,155.246735 75.000862,156.000000 
	C71.658325,157.098251 68.612633,157.557526 68.280243,152.144516 
	C68.743858,150.839127 68.939331,150.142563 69.134796,149.445999 
z"/>
<path fill="#EAF1FD" opacity="1.000000" stroke="none" 
	d="
M59.000881,28.998314 
	C57.774448,29.446428 56.548019,29.894539 55.019073,30.399948 
	C52.490746,28.364998 51.790115,26.580124 55.772457,26.032984 
	C57.996025,25.727486 60.249969,25.643051 62.562233,25.993820 
	C61.423119,27.351866 60.211998,28.175091 59.000881,28.998314 
z"/>
<path fill="#EAF1FD" opacity="1.000000" stroke="none" 
	d="
M21.904991,40.028210 
	C20.247059,40.085327 18.903774,40.078972 17.630503,39.777206 
	C17.426729,39.728916 17.311646,37.775970 17.536060,37.689362 
	C19.658955,36.869987 21.864304,36.264248 24.045895,35.596958 
	C24.325777,36.073265 24.605658,36.549568 24.885540,37.025875 
	C24.004635,37.972881 23.123732,38.919888 21.904991,40.028210 
z"/>
<path fill="#EAF1FD" opacity="1.000000" stroke="none" 
	d="
M44.781033,37.297752 
	C43.252220,38.006050 41.975773,38.513660 40.351223,39.062309 
	C40.618229,33.939705 44.413017,33.933296 48.687332,34.029655 
	C47.753925,35.063698 46.393661,36.080379 44.781033,37.297752 
z"/>
<path fill="#5F7FA6" opacity="1.000000" stroke="none" 
	d="
M115.712341,138.205231 
	C116.522110,138.580643 117.055840,139.158691 117.842499,139.896606 
	C115.458847,141.586349 112.822266,143.116211 109.856552,144.578979 
	C111.497047,142.477219 113.466682,140.442535 115.712341,138.205231 
z"/>
<path fill="#6995BC" opacity="1.000000" stroke="none" 
	d="
M59.235283,29.251633 
	C60.211998,28.175091 61.423119,27.351866 62.818134,26.271408 
	C63.549549,25.814062 64.097069,25.613953 65.068092,25.178780 
	C65.659752,24.960854 65.827904,24.977989 65.996048,24.995125 
	C65.996048,24.995125 66.037262,25.035740 66.058884,25.055759 
	C66.430565,30.363663 62.178612,28.782776 59.235283,29.251633 
z"/>
<path fill="#EAF1FD" opacity="1.000000" stroke="none" 
	d="
M68.918655,149.221954 
	C68.939331,150.142563 68.743858,150.839127 68.274414,151.771286 
	C66.675377,150.496948 65.350311,148.987000 64.034927,147.091736 
	C65.597252,147.470230 67.149879,148.234070 68.918655,149.221954 
z"/>
<path fill="#EAF1FD" opacity="1.000000" stroke="none" 
	d="
M77.931717,16.943497 
	C76.728737,18.104670 75.225105,19.065878 73.388672,20.088600 
	C74.314125,18.656258 72.225578,12.667475 77.931717,16.943497 
z"/>
<path fill="#EAF1FD" opacity="1.000000" stroke="none" 
	d="
M70.864182,20.965099 
	C69.741066,22.097383 68.258102,23.065722 66.448624,24.093651 
	C65.655479,20.516205 66.822891,19.015356 70.864182,20.965099 
z"/>
<path fill="#EAF1FD" opacity="1.000000" stroke="none" 
	d="
M75.245987,156.193146 
	C75.001205,155.246735 75.001549,154.493454 75.005424,153.363480 
	C76.352226,153.753601 77.695496,154.520432 79.253944,155.560226 
	C78.143127,156.017563 76.817123,156.201920 75.245987,156.193146 
z"/>
<path fill="#EAF1FD" opacity="1.000000" stroke="none" 
	d="
M33.824699,33.436234 
	C34.862701,33.333946 35.664757,33.441566 36.466812,33.549187 
	C36.371853,33.961819 36.276897,34.374451 36.181942,34.787083 
	C35.317543,34.406769 34.453148,34.026459 33.824699,33.436234 
z"/>
<path fill="#5D7BA3" opacity="1.000000" stroke="none" 
	d="
M138.825745,43.680092 
	C138.587921,44.345127 138.150696,44.788620 137.713470,45.232113 
	C137.143570,44.428345 136.573669,43.624580 135.994843,42.494141 
	C136.866043,42.597820 137.746185,43.028183 138.825745,43.680092 
z"/>
<path fill="#EAF1FD" opacity="1.000000" stroke="none" 
	d="
M82.655579,157.064026 
	C83.422523,157.447021 83.898415,157.738876 84.663727,158.099396 
	C83.405312,158.750946 81.566208,160.537903 81.089058,156.888626 
	C81.596329,156.706741 81.980431,156.839813 82.655579,157.064026 
z"/>
<path fill="#51688A" opacity="1.000000" stroke="none" 
	d="
M147.636185,123.042267 
	C147.652817,122.170639 147.943878,121.130592 148.565674,120.058357 
	C148.567825,120.975403 148.239227,121.924629 147.636185,123.042267 
z"/>
<path fill="#EAF1FD" opacity="1.000000" stroke="none" 
	d="
M66.066818,24.772957 
	C65.827904,24.977989 65.659752,24.960854 65.238258,24.933880 
	C65.212936,24.685421 65.440956,24.446802 65.914520,24.146591 
	C66.160080,24.085001 66.137581,24.550789 66.066818,24.772957 
z"/>
<path fill="#EAF1FD" opacity="1.000000" stroke="none" 
	d="
M65.544655,17.472111 
	C65.573326,17.521999 65.515984,17.422224 65.544655,17.472111 
z"/>
<path fill="#EAF1FD" opacity="1.000000" stroke="none" 
	d="
M29.153845,126.394669 
	C29.368078,126.205772 29.608643,126.337967 29.852331,126.817642 
	C29.672388,126.926277 29.447294,126.776497 29.153845,126.394669 
z"/>
<path fill="#EAF1FD" opacity="1.000000" stroke="none" 
	d="
M30.140610,127.278030 
	C30.311134,127.196648 30.635099,127.336166 31.114838,127.695038 
	C30.945091,127.775909 30.619572,127.637421 30.140610,127.278030 
z"/>
<path fill="#EAF1FD" opacity="1.000000" stroke="none" 
	d="
M32.155647,128.308151 
	C32.317745,128.235245 32.615837,128.371994 33.048866,128.724640 
	C32.886414,128.799622 32.589031,128.658722 32.155647,128.308151 
z"/>
<path fill="#EAF1FD" opacity="1.000000" stroke="none" 
	d="
M34.163422,129.367126 
	C34.376041,129.158981 34.651936,129.279297 34.974537,129.748810 
	C34.772831,129.911606 34.507980,129.777466 34.163422,129.367126 
z"/>
<path fill="#5F7FA6" opacity="1.000000" stroke="none" 
	d="
M109.434418,144.964828 
	C109.098755,144.910431 108.872391,144.722183 108.646027,144.533936 
	C108.775101,144.451492 108.904167,144.369049 109.255539,144.389160 
	C109.477837,144.491714 109.543701,144.830978 109.434418,144.964828 
z"/>
<path fill="#EAF1FD" opacity="1.000000" stroke="none" 
	d="
M53.999847,143.999695 
	C53.912560,144.035004 53.825432,144.070618 53.869377,144.053253 
	C54.000450,144.000275 54.000000,144.000000 53.999847,143.999695 
z"/>
<path fill="#F0F2FD" opacity="1.000000" stroke="none" 
	d="
M119.694458,40.584259 
	C123.087418,42.467358 126.162346,44.257126 129.590729,46.104347 
	C130.587875,46.671661 131.154678,47.411076 131.886993,47.656391 
	C140.591690,50.572311 142.848770,56.453835 142.342789,65.467865 
	C141.469788,81.020561 142.100601,96.657539 142.095734,112.259155 
	C142.093658,118.869545 140.538971,120.945816 134.045883,123.157761 
	C133.433090,123.366516 132.905563,123.825485 132.111603,124.426804 
	C126.076683,127.959435 120.268593,131.233566 114.239243,134.767120 
	C107.809914,138.494370 101.601837,141.962204 95.191299,145.698639 
	C92.936028,147.024612 90.883217,148.081985 88.309219,148.936066 
	C85.679832,147.197311 83.571625,145.661865 81.436348,144.106720 
	C81.360069,144.572235 81.121071,146.030869 80.882072,147.489487 
	C80.097031,147.101273 79.311989,146.713043 78.108971,145.910675 
	C77.363571,145.364243 77.036148,145.231979 76.708725,145.099716 
	C75.973732,144.762558 75.238731,144.425415 74.246643,143.546494 
	C72.154533,139.015366 68.535248,138.400925 64.741943,138.115646 
	C64.741943,138.115646 64.340164,138.042099 64.017738,137.745361 
	C63.442043,137.207748 63.140667,137.082535 62.791183,137.072968 
	C62.290657,136.885391 61.790134,136.697815 60.988052,136.030792 
	C60.327381,135.410873 59.968273,135.270386 59.609161,135.129898 
	C59.609161,135.129898 59.281197,135.120361 59.078293,134.684845 
	C57.866356,133.855515 56.857323,133.461685 55.848293,133.067871 
	C55.444244,132.970001 55.040195,132.872131 54.308235,132.486176 
	C53.646969,132.144638 53.313610,132.091171 52.980251,132.037720 
	C52.811234,132.013351 52.642220,131.988968 52.123661,131.717957 
	C51.600517,131.254639 51.382732,131.100281 51.120773,131.008255 
	C50.877884,130.746536 50.634995,130.484818 50.058495,129.848358 
	C49.495041,129.230804 49.214409,129.087143 48.882980,129.042648 
	C43.153778,126.088982 37.424576,123.135307 31.070391,119.787033 
	C30.359486,97.299843 30.273561,75.207268 30.519554,53.024971 
	C34.211174,50.946938 37.570877,48.958630 40.930580,46.970322 
	C41.140133,46.889126 41.349689,46.807934 41.974319,46.607742 
	C42.591980,46.409012 42.669716,46.262543 42.622601,46.049351 
	C43.598476,45.529217 44.574352,45.009083 46.095192,44.149151 
	C48.460247,42.663383 50.280342,41.517418 52.100433,40.371445 
	C57.922081,36.721363 63.736328,33.059368 69.572639,29.432880 
	C70.550728,28.825130 71.624451,28.371284 72.876633,27.594650 
	C75.830017,26.239489 78.548759,25.104952 81.295563,24.043005 
	C83.250633,23.287155 85.243492,22.629042 87.615524,21.948956 
	C94.288406,25.682884 100.565262,29.395166 107.170807,33.163151 
	C111.458481,35.642876 115.417450,38.066898 119.694458,40.584259 
M110.479477,88.914177 
	C111.020844,87.582832 111.562210,86.251488 112.076096,84.206375 
	C104.330559,71.250053 96.615814,58.275047 88.785439,45.370201 
	C88.103523,44.246380 86.660538,43.584354 84.951591,42.933445 
	C78.305618,53.780727 71.602554,64.593697 65.048988,75.496521 
	C63.121105,78.703835 61.616665,82.165672 59.347080,85.978119 
	C60.161480,87.610664 60.975880,89.243210 61.067123,90.974014 
	C59.979347,91.986816 58.891571,92.999619 57.100243,94.329369 
	C53.023762,103.597687 60.595257,121.736427 69.769165,125.722633 
	C77.786224,132.823212 92.175438,133.201859 101.270111,126.376511 
	C111.830048,121.526245 119.185295,103.017563 114.705948,93.222534 
	C113.066704,91.797699 111.427467,90.372864 110.479477,88.914177 
z"/>
<path fill="#74B1D3" opacity="1.000000" stroke="none" 
	d="
M30.187637,53.114693 
	C30.273561,75.207268 30.359486,97.299843 30.728687,119.700104 
	C31.179790,121.443207 31.347616,122.878632 31.583515,124.896286 
	C27.900558,122.884720 25.178312,122.260361 25.248592,116.533951 
	C25.520346,94.391701 24.523090,72.233887 23.996983,49.627884 
	C25.419960,49.029720 26.844526,48.885551 28.614540,49.123993 
	C29.369205,50.709301 29.778423,51.911999 30.187637,53.114693 
z"/>
<path fill="#77ABD0" opacity="1.000000" stroke="none" 
	d="
M30.519554,53.024971 
	C29.778423,51.911999 29.369205,50.709301 28.932285,49.095467 
	C29.760225,47.886402 30.615868,47.088478 31.678074,46.070652 
	C34.652081,46.195358 37.419525,46.539967 40.558777,46.927444 
	C37.570877,48.958630 34.211174,50.946938 30.519554,53.024971 
z"/>
<path fill="#E1EFFC" opacity="1.000000" stroke="none" 
	d="
M48.933430,129.271179 
	C49.214409,129.087143 49.495041,129.230804 49.854904,129.674011 
	C49.984924,129.874390 49.533337,129.956009 49.304089,129.957397 
	C49.074841,129.958801 48.983879,129.499695 48.933430,129.271179 
z"/>
<path fill="#E1EFFC" opacity="1.000000" stroke="none" 
	d="
M64.933777,138.392975 
	C68.535248,138.400925 72.154533,139.015366 74.009758,143.349060 
	C72.923195,143.148514 71.816429,142.603622 70.402397,142.007568 
	C68.438614,140.861038 66.782112,139.765671 64.933777,138.392975 
z"/>
<path fill="#6897B9" opacity="1.000000" stroke="none" 
	d="
M61.134495,143.888184 
	C60.376141,143.860184 59.854706,143.651733 59.171196,143.208923 
	C59.677040,142.718887 60.344971,142.463226 61.012901,142.207565 
	C61.132408,142.707626 61.251915,143.207672 61.134495,143.888184 
z"/>
<path fill="#E1EFFC" opacity="1.000000" stroke="none" 
	d="
M56.038322,133.323944 
	C56.857323,133.461685 57.866356,133.855515 58.941616,134.594101 
	C58.081348,134.485916 57.154850,134.032959 56.038322,133.323944 
z"/>
<path fill="#E1EFFC" opacity="1.000000" stroke="none" 
	d="
M53.082748,132.250336 
	C53.313610,132.091171 53.646969,132.144638 54.009499,132.392700 
	C54.038666,132.587326 53.584534,132.713211 53.584534,132.713211 
	C53.584534,132.713211 53.185242,132.462936 53.082748,132.250336 
z"/>
<path fill="#E1EFFC" opacity="1.000000" stroke="none" 
	d="
M62.935566,137.277664 
	C63.140667,137.082535 63.442043,137.207748 63.836334,137.651535 
	C63.620205,137.870468 63.321072,137.746429 62.935566,137.277664 
z"/>
<path fill="#E1EFFC" opacity="1.000000" stroke="none" 
	d="
M51.155312,131.235718 
	C51.382732,131.100281 51.600517,131.254639 51.878258,131.644577 
	C51.635376,131.884613 51.371193,131.766388 51.155312,131.235718 
z"/>
<path fill="#E1EFFC" opacity="1.000000" stroke="none" 
	d="
M59.787487,135.353973 
	C59.968273,135.270386 60.327381,135.410873 60.835571,135.805328 
	C60.645035,135.898895 60.305424,135.738480 59.787487,135.353973 
z"/>
<path fill="#6FA5D2" opacity="1.000000" stroke="none" 
	d="
M52.038013,39.997501 
	C50.280342,41.517418 48.460247,42.663383 46.320427,43.906288 
	C45.668213,42.261257 45.335728,40.519291 45.002632,38.390339 
	C47.390259,38.269199 50.449207,35.648190 52.038013,39.997501 
z"/>
<path fill="#E1EFFC" opacity="1.000000" stroke="none" 
	d="
M81.007561,147.687561 
	C81.121071,146.030869 81.360069,144.572235 81.436348,144.106720 
	C83.571625,145.661865 85.679832,147.197311 87.982689,149.064301 
	C87.794693,149.747772 87.412041,150.099716 86.865654,150.657104 
	C86.701927,150.862534 86.362595,150.815186 85.909286,150.728729 
	C84.326233,150.073898 83.196480,149.505554 82.066727,148.937195 
	C81.755501,148.586670 81.444275,148.236145 81.007561,147.687561 
z"/>
<path fill="#638EAE" opacity="1.000000" stroke="none" 
	d="
M81.866997,149.155334 
	C83.196480,149.505554 84.326233,150.073898 85.744995,150.777237 
	C83.718109,152.840714 82.229576,152.421310 81.866997,149.155334 
z"/>
<path fill="#EAF1FD" opacity="1.000000" stroke="none" 
	d="
M74.912201,152.797394 
	C74.728096,152.929306 74.484062,152.791199 74.166710,152.402100 
	C74.372414,152.213272 74.625374,152.338699 74.912201,152.797394 
z"/>
<path fill="#E1EFFC" opacity="1.000000" stroke="none" 
	d="
M76.865059,145.318298 
	C77.036148,145.231979 77.363571,145.364243 77.840050,145.720291 
	C77.666534,145.808319 77.343964,145.672592 76.865059,145.318298 
z"/>
<path fill="#77ABD0" opacity="1.000000" stroke="none" 
	d="
M42.533718,46.093727 
	C42.669716,46.262543 42.591980,46.409012 42.264893,46.436848 
	C42.140388,46.384945 42.444836,46.138103 42.533718,46.093727 
z"/>
<path fill="#4D6C9A" opacity="1.000000" stroke="none" 
	d="
M114.731186,93.890594 
	C119.185295,103.017563 111.830048,121.526245 100.506058,126.307526 
	C94.355934,126.259438 90.736481,123.546783 88.479683,118.843422 
	C87.566620,116.940506 86.841003,114.947670 86.020500,112.615967 
	C86.018005,111.477135 86.025085,110.718094 86.327751,109.797150 
	C88.735634,108.317436 90.792488,106.898872 92.970383,105.700241 
	C100.200516,101.721054 107.474205,97.820992 114.731186,93.890594 
z"/>
<path fill="#70B1D4" opacity="1.000000" stroke="none" 
	d="
M86.032166,109.959045 
	C86.025085,110.718094 86.018005,111.477135 85.747971,112.832657 
	C81.324852,123.989349 78.626945,125.943153 69.439018,125.049522 
	C60.595257,121.736427 53.023762,103.597687 57.823128,94.140930 
	C67.708069,99.288002 76.870117,104.623528 86.032166,109.959045 
z"/>
<path fill="#4D6D9A" opacity="1.000000" stroke="none" 
	d="
M85.571068,42.707821 
	C86.660538,43.584354 88.103523,44.246380 88.785439,45.370201 
	C96.615814,58.275047 104.330559,71.250053 111.687454,84.610580 
	C108.964020,84.267838 106.572174,83.662155 104.305412,82.746735 
	C98.179077,80.272629 92.105957,77.666801 85.981903,74.959671 
	C85.952095,74.806107 85.931107,74.493942 85.954628,74.057602 
	C85.842453,63.316776 85.706764,53.012299 85.571068,42.707821 
z"/>
<path fill="#72B0D4" opacity="1.000000" stroke="none" 
	d="
M85.261330,42.820633 
	C85.706764,53.012299 85.842453,63.316776 85.603859,74.216080 
	C85.076019,74.871712 84.921165,74.929436 84.769119,74.993767 
	C76.485321,78.499115 68.201752,82.005020 59.918163,85.510864 
	C61.616665,82.165672 63.121105,78.703835 65.048988,75.496521 
	C71.602554,64.593697 78.305618,53.780727 85.261330,42.820633 
z"/>
<path fill="#395577" opacity="1.000000" stroke="none" 
	d="
M59.632622,85.744492 
	C68.201752,82.005020 76.485321,78.499115 84.769119,74.993767 
	C84.921165,74.929436 85.076019,74.871712 85.580338,74.652428 
	C85.931107,74.493942 85.952095,74.806107 85.975952,75.415916 
	C85.997887,79.823509 85.872200,83.626305 86.026001,87.417770 
	C86.209938,91.952324 86.632805,96.477180 86.899780,101.340317 
	C85.229675,101.428314 83.440475,101.544838 82.023438,100.874573 
	C75.223885,97.658272 68.524956,94.229225 61.790279,90.875755 
	C60.975880,89.243210 60.161480,87.610664 59.632622,85.744492 
z"/>
<path fill="#1D435C" opacity="1.000000" stroke="none" 
	d="
M86.952187,101.006241 
	C86.632805,96.477180 86.209938,91.952324 86.026001,87.417770 
	C85.872200,83.626305 85.997887,79.823509 86.005768,75.569473 
	C92.105957,77.666801 98.179077,80.272629 104.305412,82.746735 
	C106.572174,83.662155 108.964020,84.267838 111.701195,84.967468 
	C111.562210,86.251488 111.020844,87.582832 109.822220,88.974640 
	C105.010948,91.722893 100.977821,94.628410 96.661797,97.024338 
	C93.624451,98.710457 90.202438,99.703651 86.952187,101.006241 
z"/>
<path fill="#13374C" opacity="1.000000" stroke="none" 
	d="
M86.899780,101.340317 
	C90.202438,99.703651 93.624451,98.710457 96.661797,97.024338 
	C100.977821,94.628410 105.010948,91.722893 109.476593,88.991562 
	C111.427467,90.372864 113.066704,91.797699 114.718567,93.556564 
	C107.474205,97.820992 100.200516,101.721054 92.970383,105.700241 
	C90.792488,106.898872 88.735634,108.317436 86.327751,109.797150 
	C76.870117,104.623528 67.708069,99.288002 58.174904,93.982452 
	C58.891571,92.999619 59.979347,91.986816 61.428703,90.924881 
	C68.524956,94.229225 75.223885,97.658272 82.023438,100.874573 
	C83.440475,101.544838 85.229675,101.428314 86.899780,101.340317 
z"/>
<path fill="#5A9ABB" opacity="1.000000" stroke="none" 
	d="
M69.604095,125.386078 
	C78.626945,125.943153 81.324852,123.989349 85.757553,113.212440 
	C86.841003,114.947670 87.566620,116.940506 88.479683,118.843422 
	C90.736481,123.546783 94.355934,126.259438 100.177231,126.386398 
	C92.175438,133.201859 77.786224,132.823212 69.604095,125.386078 
z"/>
</svg>