<svg version="1.1" id="Layer_1" xmlns="http://www.w3.org/2000/svg" xmlns:xlink="http://www.w3.org/1999/xlink" x="0px" y="0px"
	 width="100%" viewBox="0 0 1000 692" enable-background="new 0 0 1000 692" xml:space="preserve">
<path fill="#000000" opacity="1.000000" stroke="none" 
	d="
M719.000000,693.000000 
	C479.333405,693.000000 240.166809,693.000000 1.000160,693.000000 
	C1.000107,462.333466 1.000107,231.666946 1.000053,1.000315 
	C334.333099,1.000210 667.666199,1.000210 1000.999451,1.000105 
	C1000.999634,231.666367 1000.999634,462.332733 1000.999817,692.999512 
	C907.166687,693.000000 813.333313,693.000000 719.000000,693.000000 
M242.266098,224.273865 
	C242.566376,225.515793 242.866653,226.757706 243.028397,228.608978 
	C243.316223,229.088608 243.604065,229.568222 243.985764,230.819046 
	C245.216507,233.187805 245.944992,236.068359 247.756088,237.845734 
	C264.817078,254.588974 282.087830,271.118256 299.242126,287.766876 
	C305.434113,293.776337 309.518982,293.765137 315.682892,287.853882 
	C328.718445,275.352661 341.244324,262.215637 355.134491,250.737335 
	C371.074219,237.565292 389.171051,227.524307 408.237427,219.250595 
	C437.544830,206.532822 468.307983,200.829697 499.996979,200.197845 
	C511.588867,199.966721 523.254883,201.736954 534.835876,203.046661 
	C556.777954,205.528137 577.652344,211.973373 597.754883,220.974976 
	C624.457397,232.931946 647.991333,249.486374 668.659424,270.158356 
	C674.315186,275.815216 679.924927,281.519470 685.652039,287.103241 
	C690.391968,291.724609 694.723389,292.271332 698.641357,288.828857 
	C702.483337,285.453125 706.350830,282.089264 709.978394,278.489624 
	C724.528870,264.050842 739.004883,249.536758 753.478455,235.020645 
	C759.780701,228.699890 759.875916,218.286636 753.544434,212.072342 
	C745.732056,204.404572 738.054626,196.555206 729.765198,189.428223 
	C718.359741,179.622162 706.762024,169.976013 694.656189,161.063324 
	C677.067322,148.113846 657.862061,137.772812 637.851074,129.065399 
	C627.621582,124.614220 617.237305,120.266281 606.542725,117.196312 
	C590.982361,112.729568 575.175049,108.970444 559.289978,105.837654 
	C547.294800,103.472000 535.043884,101.630440 522.851257,101.224892 
	C505.952728,100.662804 488.980469,101.254700 472.081268,102.142616 
	C460.673035,102.742020 449.113098,103.730362 438.018127,106.275764 
	C419.733582,110.470604 401.493286,115.249588 383.740173,121.273109 
	C360.161865,129.273071 338.095886,140.720062 317.142944,154.282761 
	C299.909027,165.438110 283.842102,178.017197 268.460175,192.106613 
	C268.267822,192.392502 268.075470,192.678391 267.272552,193.221542 
	C263.834717,196.777603 260.396881,200.333664 256.341461,204.158691 
	C253.856201,206.758286 251.370926,209.357864 248.425583,212.087601 
	C248.130875,212.272339 247.974838,212.538406 247.340958,213.155029 
	C246.522415,214.422684 245.703873,215.690338 244.322784,217.199127 
	C244.177490,217.784927 244.032196,218.370728 243.219284,219.345200 
	C243.105408,220.885208 242.991531,222.425201 242.266098,224.273865 
M101.032753,368.718994 
	C102.674294,371.184235 104.315826,373.649506 106.213554,376.724091 
	C108.770813,379.163635 111.328072,381.603180 114.156944,384.661774 
	C117.090614,387.146057 120.024277,389.630371 123.215683,392.725983 
	C139.718857,408.892700 156.220520,425.060974 172.725632,441.225708 
	C188.759094,456.928467 204.795532,472.628235 220.831665,488.328278 
	C236.629730,503.795166 252.436584,519.252991 268.225830,534.728882 
	C285.918823,552.070801 303.588135,569.436951 321.285370,586.774475 
	C327.033966,592.406250 339.851746,592.447266 345.627838,586.862488 
	C356.729034,576.129089 367.863037,565.428589 378.879272,554.608398 
	C401.902740,531.994507 424.840240,509.293121 447.848358,486.663574 
	C464.322174,470.460815 480.897858,454.361328 497.315613,438.102173 
	C500.095795,435.348846 502.038971,435.477661 504.750641,438.160004 
	C513.952515,447.262329 523.416138,456.099701 532.643982,465.176270 
	C558.146973,490.261108 583.558411,515.439026 609.051270,540.534180 
	C624.806702,556.043884 640.644958,571.469543 656.444946,586.934082 
	C656.682800,587.166931 656.890137,587.432739 657.139221,587.651978 
	C662.782043,592.619385 673.639893,593.214539 678.811523,588.672058 
	C683.277588,584.749268 687.653687,580.714050 691.912964,576.567566 
	C707.634277,561.262390 723.332886,545.933472 738.961853,530.533997 
	C765.985168,503.907501 792.930969,477.202332 819.958008,450.579620 
	C824.430664,446.173889 829.255188,442.125946 833.739014,437.730957 
	C854.643311,417.240479 875.438721,396.638611 896.376221,376.182220 
	C903.185242,369.529724 901.997437,356.786774 895.780273,351.008881 
	C879.712708,336.076782 864.300781,320.440063 848.594177,305.118408 
	C841.927185,298.614807 831.091736,298.667114 824.372986,305.133392 
	C815.646118,313.532196 806.832825,321.842957 798.198181,330.335419 
	C772.694275,355.419495 747.281494,380.596252 721.790649,405.693726 
	C705.443054,421.789093 689.020691,437.808472 672.632874,453.863098 
	C672.395325,454.095856 672.175720,454.549042 671.942627,454.552460 
	C669.956116,454.581543 667.355713,455.327972 666.092529,454.357819 
	C661.788330,451.052094 657.859863,447.230835 653.958984,443.430878 
	C638.002563,427.887604 622.069824,412.319611 606.201904,396.686035 
	C579.176514,370.059692 552.204651,343.379089 525.216003,316.715454 
	C522.134155,313.670654 518.973694,310.694336 516.049500,307.503113 
	C508.294189,299.039459 495.058899,298.167755 486.096954,307.251404 
	C470.220520,323.343353 453.873199,338.970795 437.717560,354.787170 
	C422.276276,369.904114 406.818420,385.004150 391.385681,400.129822 
	C373.335297,417.821075 355.238739,435.466278 337.325989,453.295990 
	C334.145355,456.461884 332.075745,456.716217 328.789062,453.425476 
	C317.523438,442.146027 305.956177,431.168457 294.550232,420.028381 
	C278.137634,403.998352 261.741577,387.951202 245.382156,371.866943 
	C222.844330,349.708160 200.355804,327.499207 177.827576,305.330658 
	C170.923615,298.536896 160.149490,298.519257 153.242065,305.263306 
	C138.257416,319.893463 123.410545,334.667633 108.256416,349.119812 
	C102.682137,354.435883 100.355476,360.513428 101.032753,368.718994 
z"/>
<path fill="#3396FF" opacity="1.000000" stroke="none" 
	d="
M113.885315,384.042755 
	C111.328072,381.603180 108.770813,379.163635 106.070778,376.050018 
	C104.340988,372.917145 102.753967,370.458344 101.166946,367.999542 
	C100.355476,360.513428 102.682137,354.435883 108.256416,349.119812 
	C123.410545,334.667633 138.257416,319.893463 153.242065,305.263306 
	C160.149490,298.519257 170.923615,298.536896 177.827576,305.330658 
	C200.355804,327.499207 222.844330,349.708160 245.382156,371.866943 
	C261.741577,387.951202 278.137634,403.998352 294.550232,420.028381 
	C305.956177,431.168457 317.523438,442.146027 328.789062,453.425476 
	C332.075745,456.716217 334.145355,456.461884 337.325989,453.295990 
	C355.238739,435.466278 373.335297,417.821075 391.385681,400.129822 
	C406.818420,385.004150 422.276276,369.904114 437.717560,354.787170 
	C453.873199,338.970795 470.220520,323.343353 486.096954,307.251404 
	C495.058899,298.167755 508.294189,299.039459 516.049500,307.503113 
	C518.973694,310.694336 522.134155,313.670654 525.216003,316.715454 
	C552.204651,343.379089 579.176514,370.059692 606.201904,396.686035 
	C622.069824,412.319611 638.002563,427.887604 653.958984,443.430878 
	C657.859863,447.230835 661.788330,451.052094 666.092529,454.357819 
	C667.355713,455.327972 669.956116,454.581543 671.942627,454.552460 
	C672.175720,454.549042 672.395325,454.095856 672.632874,453.863098 
	C689.020691,437.808472 705.443054,421.789093 721.790649,405.693726 
	C747.281494,380.596252 772.694275,355.419495 798.198181,330.335419 
	C806.832825,321.842957 815.646118,313.532196 824.372986,305.133392 
	C831.091736,298.667114 841.927185,298.614807 848.594177,305.118408 
	C864.300781,320.440063 879.712708,336.076782 895.780273,351.008881 
	C901.997437,356.786774 903.185242,369.529724 896.376221,376.182220 
	C875.438721,396.638611 854.643311,417.240479 833.739014,437.730957 
	C829.255188,442.125946 824.430664,446.173889 819.958008,450.579620 
	C792.930969,477.202332 765.985168,503.907501 738.961853,530.533997 
	C723.332886,545.933472 707.634277,561.262390 691.912964,576.567566 
	C687.653687,580.714050 683.277588,584.749268 678.811523,588.672058 
	C673.639893,593.214539 662.782043,592.619385 657.139221,587.651978 
	C656.890137,587.432739 656.682800,587.166931 656.444946,586.934082 
	C640.644958,571.469543 624.806702,556.043884 609.051270,540.534180 
	C583.558411,515.439026 558.146973,490.261108 532.643982,465.176270 
	C523.416138,456.099701 513.952515,447.262329 504.750641,438.160004 
	C502.038971,435.477661 500.095795,435.348846 497.315613,438.102173 
	C480.897858,454.361328 464.322174,470.460815 447.848358,486.663574 
	C424.840240,509.293121 401.902740,531.994507 378.879272,554.608398 
	C367.863037,565.428589 356.729034,576.129089 345.627838,586.862488 
	C339.851746,592.447266 327.033966,592.406250 321.285370,586.774475 
	C303.588135,569.436951 285.918823,552.070801 268.225830,534.728882 
	C252.436584,519.252991 236.629730,503.795166 220.831665,488.328278 
	C204.795532,472.628235 188.759094,456.928467 172.725632,441.225708 
	C156.220520,425.060974 139.718857,408.892700 123.024200,392.076721 
	C119.850250,388.965912 116.867775,386.504333 113.885315,384.042755 
z"/>
<path fill="#3396FF" opacity="1.000000" stroke="none" 
	d="
M247.957458,212.885788 
	C247.974838,212.538406 248.130875,212.272339 249.024017,212.008392 
	C253.698410,210.737244 256.467773,208.352936 256.959015,203.889709 
	C260.396881,200.333664 263.834717,196.777603 267.778137,192.983597 
	C268.542389,192.582184 268.777283,192.389755 268.988464,192.168350 
	C283.842102,178.017197 299.909027,165.438110 317.142944,154.282761 
	C338.095886,140.720062 360.161865,129.273071 383.740173,121.273109 
	C401.493286,115.249588 419.733582,110.470604 438.018127,106.275764 
	C449.113098,103.730362 460.673035,102.742020 472.081268,102.142616 
	C488.980469,101.254700 505.952728,100.662804 522.851257,101.224892 
	C535.043884,101.630440 547.294800,103.472000 559.289978,105.837654 
	C575.175049,108.970444 590.982361,112.729568 606.542725,117.196312 
	C617.237305,120.266281 627.621582,124.614220 637.851074,129.065399 
	C657.862061,137.772812 677.067322,148.113846 694.656189,161.063324 
	C706.762024,169.976013 718.359741,179.622162 729.765198,189.428223 
	C738.054626,196.555206 745.732056,204.404572 753.544434,212.072342 
	C759.875916,218.286636 759.780701,228.699890 753.478455,235.020645 
	C739.004883,249.536758 724.528870,264.050842 709.978394,278.489624 
	C706.350830,282.089264 702.483337,285.453125 698.641357,288.828857 
	C694.723389,292.271332 690.391968,291.724609 685.652039,287.103241 
	C679.924927,281.519470 674.315186,275.815216 668.659424,270.158356 
	C647.991333,249.486374 624.457397,232.931946 597.754883,220.974976 
	C577.652344,211.973373 556.777954,205.528137 534.835876,203.046661 
	C523.254883,201.736954 511.588867,199.966721 499.996979,200.197845 
	C468.307983,200.829697 437.544830,206.532822 408.237427,219.250595 
	C389.171051,227.524307 371.074219,237.565292 355.134491,250.737335 
	C341.244324,262.215637 328.718445,275.352661 315.682892,287.853882 
	C309.518982,293.765137 305.434113,293.776337 299.242126,287.766876 
	C282.087830,271.118256 264.817078,254.588974 247.756088,237.845734 
	C245.944992,236.068359 245.216507,233.187805 244.093674,230.249771 
	C243.856705,229.120209 243.511810,228.559921 243.166931,227.999634 
	C242.866653,226.757706 242.566376,225.515793 242.860016,223.939392 
	C243.598267,222.055450 243.742584,220.505997 243.886902,218.956528 
	C244.032196,218.370728 244.177490,217.784927 244.953156,217.004944 
	C246.374832,215.502426 247.166138,214.194107 247.957458,212.885788 
z"/>
<path fill="#3295FF" opacity="1.000000" stroke="none" 
	d="
M114.021118,384.352264 
	C116.867775,386.504333 119.850250,388.965912 122.895325,391.771057 
	C120.024277,389.630371 117.090614,387.146057 114.021118,384.352264 
z"/>
<path fill="#3395FF" opacity="1.000000" stroke="none" 
	d="
M256.650238,204.024200 
	C256.467773,208.352936 253.698410,210.737244 249.254059,211.943329 
	C251.370926,209.357864 253.856201,206.758286 256.650238,204.024200 
z"/>
<path fill="#3295FF" opacity="1.000000" stroke="none" 
	d="
M101.099854,368.359253 
	C102.753967,370.458344 104.340988,372.917145 105.942688,375.745361 
	C104.315826,373.649506 102.674294,371.184235 101.099854,368.359253 
z"/>
<path fill="#3395FF" opacity="1.000000" stroke="none" 
	d="
M243.553101,219.150864 
	C243.742584,220.505997 243.598267,222.055450 243.165802,223.785065 
	C242.991531,222.425201 243.105408,220.885208 243.553101,219.150864 
z"/>
<path fill="#3395FF" opacity="1.000000" stroke="none" 
	d="
M247.649200,213.020416 
	C247.166138,214.194107 246.374832,215.502426 245.234421,216.884369 
	C245.703873,215.690338 246.522415,214.422684 247.649200,213.020416 
z"/>
<path fill="#3395FF" opacity="1.000000" stroke="none" 
	d="
M243.097656,228.304306 
	C243.511810,228.559921 243.856705,229.120209 244.046738,229.864166 
	C243.604065,229.568222 243.316223,229.088608 243.097656,228.304306 
z"/>
<path fill="#3395FF" opacity="1.000000" stroke="none" 
	d="
M268.724304,192.137482 
	C268.777283,192.389755 268.542389,192.582184 268.083435,192.854965 
	C268.075470,192.678391 268.267822,192.392502 268.724304,192.137482 
z"/>
</svg>