<svg width="18" height="18" viewBox="0 0 18 18" fill="none" xmlns="http://www.w3.org/2000/svg">
<path fill-rule="evenodd" clip-rule="evenodd" d="M1.7072 0.292893C1.31668 -0.0976311 0.683511 -0.0976311 0.292986 0.292893C-0.0975379 0.683417 -0.0975379 1.31658 0.292986 1.70711L7.36408 8.7782L0.292893 15.8494C-0.0976311 16.2399 -0.0976311 16.8731 0.292893 17.2636C0.683417 17.6541 1.31658 17.6541 1.70711 17.2636L8.77829 10.1924L15.8493 17.2635C16.2399 17.654 16.873 17.654 17.2635 17.2635C17.6541 16.8729 17.6541 16.2398 17.2635 15.8492L10.1925 8.7782L17.2635 1.70725C17.654 1.31672 17.654 0.683559 17.2635 0.293034C16.8729 -0.09749 16.2398 -0.0974897 15.8492 0.293034L8.77829 7.36399L1.7072 0.292893Z" fill="#292930"/>
</svg>
