<svg width="123" height="48" viewBox="0 0 123 48" fill="none" xmlns="http://www.w3.org/2000/svg">
<path d="M29.1304 17.8785L16.8001 10.819L10.5004 14.4223L7.46704 12.7054L22.9226 3.85547L25.9462 5.58197L19.8925 9.04777L32.236 16.1073L29.1304 17.8785Z" fill="white"/>
<path d="M16.7706 24.1198L12.4353 25.1589L7.46708 18.7868L4.89279 17.4376V34.4149L7.77534 36.0135L7.71959 22.5851L10.7366 26.2619L10.8219 37.7272L13.7733 39.3738L13.7503 27.966L15.0948 27.6463L16.8854 27.6239L16.905 41.1194L19.8565 42.7692V25.9294L16.7706 24.1198ZM16.7706 24.1198L12.4353 25.1589L7.46708 18.7868L4.89279 17.4376V34.4149L7.77534 36.0135L7.71959 22.5851L10.7366 26.2619L10.8219 37.7272L13.7733 39.3738L13.7503 27.966L15.0948 27.6463L16.8854 27.6239L16.905 41.1194L19.8565 42.7692V25.9294L16.7706 24.1198ZM16.7706 24.1198L12.4353 25.1589L7.46708 18.7868L4.89279 17.4376V34.4149L7.77534 36.0135L7.71959 22.5851L10.7366 26.2619L10.8219 37.7272L13.7733 39.3738L13.7503 27.966L15.0948 27.6463L16.8854 27.6239L16.905 41.1194L19.8565 42.7692V25.9294L16.7706 24.1198ZM16.7706 24.1198L12.4353 25.1589L7.46708 18.7868L4.89279 17.4376V34.4149L7.77534 36.0135L7.71959 22.5851L10.7366 26.2619L10.8219 37.7272L13.7733 39.3738L13.7503 27.966L15.0948 27.6463L16.8854 27.6239L16.905 41.1194L19.8565 42.7692V25.9294L16.7706 24.1198ZM42.3495 9.52762L26.4348 0.872719C25.3821 0.300417 24.1968 0 22.9915 0C21.7862 0 20.6009 0.300417 19.5482 0.872719L3.62696 9.52762C2.52757 10.1264 1.6119 11.0003 0.974357 12.0591C0.336812 13.118 0.000466829 14.3234 0 15.5512L0 32.4518C0.00104985 33.679 0.337671 34.8838 0.975187 35.942C1.6127 37.0002 2.52806 37.8736 3.62696 38.4721L19.5482 47.127C20.6009 47.6993 21.7862 47.9997 22.9915 47.9997C24.1968 47.9997 25.3821 47.6993 26.4348 47.127L42.3561 38.4721C43.4558 37.8742 44.372 37.0011 45.0102 35.9428C45.6483 34.8845 45.9853 33.6794 45.9863 32.4518V15.5512C45.9859 14.323 45.6492 13.1172 45.011 12.0583C44.3728 10.9994 43.4563 10.1258 42.3561 9.52762H42.3495ZM22.9882 43.463C22.9884 43.7473 22.9121 44.0266 22.7669 44.2731C22.6217 44.5196 22.4126 44.7246 22.1607 44.8676C21.9087 45.0107 21.6227 45.0868 21.3311 45.0883C21.0396 45.0898 20.7527 45.0166 20.4992 44.8762L4.46319 35.9911C3.92449 35.6924 3.47655 35.2599 3.16493 34.7376C2.8533 34.2153 2.68912 33.6219 2.68907 33.0177V14.8446L20.1057 24.2477C20.9741 24.6856 21.7023 25.3479 22.2107 26.1621C22.7191 26.9764 22.9881 27.9112 22.9882 28.8645V43.463ZM19.299 21.7027L3.86307 13.3547C3.86307 13.3547 4.66323 11.7561 6.11271 10.9536C7.46052 10.2086 20.7124 2.83901 20.7124 2.83901C21.4675 2.41875 22.322 2.19772 23.1916 2.19772C24.0611 2.19772 24.9156 2.41875 25.6707 2.83901C25.6707 2.83901 39.7359 10.685 40.5721 11.1326C40.9859 11.365 41.3482 11.6751 41.6381 12.045C41.9281 12.4149 42.1398 12.8373 42.261 13.2876L27.1989 21.6579C25.9968 22.3258 24.6385 22.6807 23.255 22.6886C21.8714 22.6964 20.509 22.3569 19.299 21.7027ZM42.7102 19.9442L29.1632 27.7486V39.4345L39.3784 33.5196V29.5838L32.8492 33.3598V29.5615L42.7102 23.8768V33.4685C42.7087 34.063 42.547 34.6468 42.2414 35.1613C41.9358 35.6758 41.497 36.1031 40.9689 36.4003L25.8249 44.9497V27.7167C25.827 27.123 25.9886 26.5403 26.2935 26.0265C26.5985 25.5126 27.0361 25.0856 27.5629 24.788L42.7102 16.2258V19.9442ZM12.4353 25.1589L7.46708 18.7868L4.89279 17.4376V34.4149L7.77534 36.0135L7.71959 22.5851L10.7366 26.2619L10.8219 37.7272L13.7733 39.3738L13.7503 27.966L15.0948 27.6463L16.8854 27.6239L16.905 41.1194L19.8565 42.7692V25.9294L16.7739 24.1198L12.4353 25.1589ZM16.7706 24.1198L12.4353 25.1589L7.46708 18.7868L4.89279 17.4376V34.4149L7.77534 36.0135L7.71959 22.5851L10.7366 26.2619L10.8219 37.7272L13.7733 39.3738L13.7503 27.966L15.0948 27.6463L16.8854 27.6239L16.905 41.1194L19.8565 42.7692V25.9294L16.7706 24.1198ZM16.7706 24.1198L12.4353 25.1589L7.46708 18.7868L4.89279 17.4376V34.4149L7.77534 36.0135L7.71959 22.5851L10.7366 26.2619L10.8219 37.7272L13.7733 39.3738L13.7503 27.966L15.0948 27.6463L16.8854 27.6239L16.905 41.1194L19.8565 42.7692V25.9294L16.7706 24.1198Z" fill="white"/>
<path d="M58.9415 23.487V12.7188H62.3619L64.887 18.7679H65.1756L67.6843 12.7188H71.1637V23.487H68.7009V14.295L69.0485 14.327L66.1299 21.3033H63.7687L60.8337 14.327L61.2108 14.295V23.487H58.9415Z" fill="white"/>
<path d="M77.5387 23.7681C76.8787 23.783 76.222 23.6745 75.6039 23.4484C75.0674 23.2466 74.5803 22.9373 74.1741 22.5404C73.7883 22.1648 73.4868 21.7151 73.2887 21.2199C73.0847 20.7205 72.9812 20.1876 72.9837 19.6501V19.2984C72.9874 18.75 73.0987 18.2074 73.3116 17.6998C73.5152 17.1972 73.8247 16.742 74.22 16.3633C74.6343 15.971 75.1249 15.6634 75.6629 15.4585C76.8913 15.0151 78.2419 15.0151 79.4702 15.4585C80.0045 15.6632 80.4908 15.971 80.9 16.3633C81.2825 16.7464 81.5834 17.1995 81.7855 17.6966C82.0014 18.2033 82.1128 18.7465 82.1134 19.2952V19.6341C82.1154 20.1713 82.0131 20.7039 81.8117 21.2039C81.6109 21.6978 81.3097 22.1469 80.9263 22.5244C80.5173 22.9218 80.0282 23.2321 79.4899 23.4356C78.8671 23.6662 78.2049 23.7791 77.5387 23.7681ZM77.5387 21.7762C77.9531 21.7915 78.3632 21.6894 78.7193 21.4821C79.037 21.281 79.2868 20.9929 79.4374 20.654C79.6093 20.2836 79.6955 19.8808 79.69 19.4742C79.6977 19.0544 79.6092 18.6383 79.4309 18.2561C79.2696 17.9181 79.0154 17.6303 78.6963 17.4248C78.349 17.2236 77.9525 17.1173 77.5485 17.1173C77.1446 17.1173 76.748 17.2236 76.4008 17.4248C76.0794 17.6277 75.8244 17.9162 75.6662 18.2561C75.3404 19.0238 75.3404 19.8862 75.6662 20.654C75.8182 20.9949 76.0719 21.2835 76.3942 21.4821C76.7403 21.6819 77.1366 21.7838 77.5387 21.7762Z" fill="white"/>
<path d="M85.2124 23.4869L82.73 15.4043H85.2288L87.5572 23.4869H85.2124ZM85.97 23.4869V21.527H88.4065V23.4869H85.97ZM86.862 23.4869L88.8755 15.4043H91.2038L89.0558 23.4869H86.862Z" fill="white"/>
<path d="M96.2442 23.7683C95.6023 23.7806 94.9651 23.6597 94.3749 23.4134C93.861 23.1921 93.4023 22.8648 93.0304 22.4543C92.6737 22.0604 92.3956 21.6049 92.2106 21.1114C92.0258 20.622 91.9314 20.1046 91.9318 19.5832V19.289C91.9293 18.758 92.0236 18.2307 92.2106 17.732C92.3946 17.242 92.6691 16.789 93.0206 16.3955C93.3843 15.9957 93.8316 15.6763 94.3323 15.4587C94.9029 15.2206 95.5187 15.1029 96.1392 15.1134C96.9314 15.0882 97.7137 15.2906 98.3889 15.6953C98.9858 16.0712 99.4691 16.5954 99.7891 17.214C100.113 17.8496 100.278 18.5507 100.271 19.2602V20.0563H92.9353V18.7135H98.8086L98.0216 19.3338C98.0316 18.9108 97.9592 18.4899 97.8084 18.0932C97.6898 17.7795 97.4773 17.5077 97.1984 17.3131C96.888 17.1224 96.5256 17.0277 96.1589 17.0414C95.7812 17.0292 95.4082 17.126 95.0865 17.3195C94.787 17.5217 94.5581 17.8084 94.4307 18.1412C94.1347 18.9762 94.129 19.8829 94.4143 20.7214C94.5382 21.0594 94.7676 21.3512 95.0702 21.5558C95.4254 21.765 95.8361 21.8673 96.2507 21.85C96.6302 21.8652 97.0067 21.779 97.3395 21.6006C97.5959 21.4606 97.7986 21.2428 97.9166 20.9803H100.15C100.034 21.5105 99.7903 22.0061 99.4382 22.4255C99.08 22.852 98.6239 23.1904 98.1068 23.4134C97.5195 23.6616 96.8841 23.7827 96.2442 23.7683Z" fill="white"/>
<path d="M104.295 14.8289V12.7188H112.998V14.8289H104.295ZM107.397 23.487V14.5348H109.88V23.487H107.397Z" fill="white"/>
<path d="M117.432 23.7682C116.771 23.7833 116.113 23.6747 115.494 23.4484C114.958 23.2458 114.471 22.9366 114.064 22.5404C113.678 22.1648 113.377 21.7152 113.179 21.22C112.976 20.7204 112.873 20.1874 112.877 19.6501V19.2984C112.874 18.7513 112.979 18.2087 113.185 17.6998C113.389 17.1973 113.698 16.742 114.094 16.3634C114.509 15.971 115.001 15.6634 115.54 15.4586C116.767 15.0151 118.117 15.0151 119.344 15.4586C119.878 15.6632 120.364 15.971 120.774 16.3634C121.166 16.7445 121.475 17.1991 121.682 17.6998C121.898 18.2065 122.009 18.7497 122.01 19.2984V19.6373C122.012 20.1745 121.91 20.7072 121.708 21.2072C121.508 21.701 121.206 22.1502 120.823 22.5276C120.416 22.9238 119.929 23.233 119.393 23.4356C118.767 23.6681 118.102 23.781 117.432 23.7682ZM117.432 21.7763C117.846 21.7907 118.256 21.6886 118.613 21.4821C118.929 21.2792 119.178 20.9917 119.331 20.6541C119.498 20.2755 119.585 19.8675 119.585 19.4551C119.585 19.0427 119.498 18.6347 119.331 18.2561C119.171 17.9183 118.918 17.6305 118.6 17.4249C118.252 17.2243 117.856 17.1184 117.452 17.1184C117.048 17.1184 116.651 17.2243 116.304 17.4249C115.98 17.6268 115.723 17.9154 115.563 18.2561C115.4 18.636 115.317 19.0435 115.317 19.4551C115.317 19.8667 115.4 20.2741 115.563 20.6541C115.713 20.9954 115.965 21.2842 116.288 21.4821C116.634 21.6813 117.03 21.7831 117.432 21.7763Z" fill="white"/>
<path d="M63.8606 32.3973H69.9438V34.1366H69.0354V35.9686C68.562 36.7131 67.879 37.3091 67.0678 37.6855C66.1628 38.1 65.1717 38.3047 64.1721 38.2834C63.2836 38.3026 62.4009 38.1392 61.5814 37.8038C60.8844 37.5138 60.2617 37.0771 59.7581 36.5249C59.2874 35.9973 58.9255 35.3861 58.6923 34.7249C58.4642 34.0898 58.3467 33.4219 58.3447 32.749V32.4293C58.3442 31.7509 58.4617 31.0774 58.6923 30.4374C58.9254 29.7884 59.2826 29.1884 59.745 28.6693C60.2271 28.1233 60.8259 27.6868 61.4995 27.3904C62.2644 27.0617 63.0938 26.9002 63.9295 26.9172C64.8422 26.8992 65.7472 27.084 66.5759 27.4576C67.3131 27.7903 67.9492 28.3036 68.4222 28.9475C68.8929 29.5969 69.1709 30.3602 69.2256 31.1536H66.7431C66.6889 30.7712 66.5239 30.4119 66.2676 30.1177C65.9988 29.8165 65.662 29.5801 65.2838 29.4271C64.8552 29.2524 64.394 29.1664 63.9295 29.1745C63.484 29.1662 63.042 29.2524 62.6341 29.4271C62.2559 29.5875 61.9196 29.829 61.6503 30.1336C61.3761 30.4519 61.1698 30.8204 61.0436 31.2175C60.9043 31.6652 60.8358 32.1309 60.8403 32.5987C60.8338 33.0814 60.908 33.562 61.06 34.0215C61.1977 34.4305 61.421 34.8072 61.7159 35.1277C62.0048 35.4431 62.3653 35.6884 62.7686 35.8439C63.2142 36.0153 63.6899 36.1 64.1688 36.0933C64.79 36.1079 65.4045 35.9658 65.9528 35.6808C66.2548 35.5189 66.522 35.3018 66.7399 35.0414V34.1462H63.8508L63.8606 32.3973ZM77.8864 31.2079C78.2118 31.767 78.3698 32.404 78.3422 33.0463V38.002H76.4205V36.4482C76.3595 36.6474 76.2759 36.8393 76.1713 37.0205C75.9504 37.3959 75.6253 37.7029 75.2334 37.9061C74.7804 38.1289 74.2779 38.2387 73.7708 38.2258C73.2314 38.2346 72.6969 38.1254 72.2065 37.9061C71.7751 37.7134 71.4097 37.4037 71.1539 37.0141C70.8937 36.5943 70.7628 36.1104 70.7767 35.6201C70.7536 35.0966 70.9195 34.5818 71.2457 34.1653C71.5898 33.7667 72.0456 33.4745 72.5574 33.3245C73.1888 33.1332 73.8475 33.0415 74.5086 33.0527H76.0073V33.0239C76.034 32.6874 75.9258 32.3539 75.7056 32.0935C75.5754 31.9785 75.4224 31.8907 75.256 31.8357C75.0895 31.7807 74.9133 31.7596 74.7382 31.7738C74.5152 31.7738 74.2233 31.7738 73.8593 31.7738C73.4953 31.7738 73.1215 31.7962 72.7378 31.8154L71.695 31.8761V29.9034L72.5115 29.8427C72.8394 29.8235 73.1477 29.8107 73.4953 29.8011C73.8429 29.7915 74.1512 29.8011 74.4332 29.8011C75.164 29.7814 75.8916 29.902 76.5746 30.156C77.1151 30.3624 77.5744 30.7307 77.8864 31.2079ZM75.7679 35.9526C75.9295 35.6576 76.0129 35.3279 76.0106 34.9934V34.354H74.4988C74.1436 34.3289 73.792 34.4363 73.515 34.6545C73.4034 34.7601 73.3164 34.8878 73.2598 35.029C73.2032 35.1702 73.1784 35.3216 73.1871 35.473C73.1801 35.6199 73.2058 35.7665 73.2624 35.9029C73.319 36.0392 73.4052 36.1619 73.515 36.2627C73.789 36.4878 74.141 36.6022 74.4988 36.5825C74.7483 36.5867 74.9961 36.541 75.2268 36.4482C75.4571 36.344 75.6469 36.1702 75.7679 35.9526ZM91.9089 30.0889C91.4376 29.7962 90.8867 29.6491 90.3282 29.6668H90.22C89.6721 29.6514 89.1323 29.7986 88.6721 30.0889C88.2185 30.3926 87.8744 30.8277 87.6883 31.3326L87.6588 31.4253C87.6588 31.3933 87.6392 31.3614 87.6293 31.3326C87.4498 30.8314 87.1167 30.3961 86.675 30.0857C86.2094 29.7912 85.6621 29.6439 85.1075 29.6636H85.0026C84.4513 29.6456 83.9076 29.7929 83.4449 30.0857C82.9985 30.3915 82.6641 30.8284 82.4906 31.3326C82.4127 31.5409 82.3513 31.7546 82.3069 31.972V29.9162H80.3852V38.002H82.8087V33.3117C82.7878 32.907 82.9222 32.5092 83.1858 32.1959C83.3171 32.0544 83.4792 31.9434 83.6602 31.8709C83.8412 31.7984 84.0365 31.7663 84.2319 31.777C84.4172 31.7685 84.6021 31.8012 84.7726 31.8727C84.943 31.9441 85.0945 32.0525 85.2157 32.1895C85.4621 32.4958 85.5878 32.878 85.5699 33.2669V38.002H88.0163V33.3117C87.9966 32.9066 88.1322 32.5089 88.3967 32.1959C88.5258 32.057 88.6847 31.9474 88.8621 31.8751C89.0395 31.8027 89.231 31.7692 89.4231 31.777C89.6121 31.7663 89.8011 31.7978 89.9756 31.8693C90.1501 31.9408 90.3055 32.0503 90.4299 32.1895C90.6799 32.4941 90.807 32.8773 90.7873 33.2669V38.002H93.2075V33.4012C93.2291 32.699 93.1179 31.9988 92.8795 31.3358C92.6976 30.8315 92.3581 30.3954 91.9089 30.0889ZM103.97 32.1447C104.152 32.6732 104.242 33.2276 104.236 33.7849V34.1046C104.242 34.6609 104.152 35.2142 103.97 35.7416C103.803 36.2266 103.54 36.6752 103.196 37.062C102.862 37.4403 102.447 37.7426 101.98 37.9477C101.475 38.1657 100.928 38.2748 100.376 38.2674C99.7533 38.2806 99.1375 38.1363 98.5889 37.8486C98.0727 37.5658 97.6522 37.1425 97.3788 36.6304C97.3095 36.5035 97.2492 36.3721 97.1984 36.2372V38.002H95.2768V27.2338H97.6969V31.1919C97.9529 30.7398 98.329 30.3633 98.7857 30.1017C99.3125 29.8159 99.9077 29.6713 100.511 29.6828C101.039 29.6748 101.564 29.7772 102.049 29.9834C102.5 30.18 102.9 30.4728 103.219 30.8402C103.553 31.2242 103.808 31.6671 103.97 32.1447ZM101.79 33.9447C101.798 33.528 101.709 33.1148 101.53 32.7362C101.374 32.4041 101.121 32.1242 100.803 31.9314C100.484 31.7387 100.115 31.6416 99.7399 31.6523C99.3806 31.6525 99.0269 31.7393 98.7102 31.9049C98.3897 32.071 98.1211 32.3184 97.933 32.6211C97.7275 32.9626 97.6252 33.3539 97.6379 33.7497V34.2932C97.6266 34.6775 97.734 35.0562 97.9461 35.3803C98.1452 35.6717 98.4187 35.9076 98.7397 36.0645C99.0496 36.2184 99.3922 36.2995 99.7399 36.3011C100.123 36.309 100.499 36.2067 100.822 36.007C101.138 35.8005 101.387 35.5112 101.54 35.1725C101.715 34.786 101.8 34.3669 101.79 33.9447ZM105.026 27.2306V28.9699H106.01V37.9988H108.447V27.2338H105.036L105.026 27.2306ZM118.511 34.5842H112.464C112.497 34.8027 112.554 35.0171 112.634 35.2236C112.757 35.5623 112.987 35.8544 113.29 36.0581C113.635 36.2478 114.022 36.3533 114.418 36.3655C114.813 36.3777 115.206 36.2964 115.563 36.1284C115.819 35.9884 116.02 35.7705 116.137 35.5082H118.36C118.246 36.0382 118.003 36.5337 117.652 36.9533C117.293 37.3792 116.837 37.7175 116.32 37.9413C115.738 38.1869 115.108 38.3079 114.474 38.2962C113.832 38.3091 113.195 38.1881 112.605 37.9413C112.089 37.7207 111.63 37.3934 111.257 36.9821C110.902 36.5872 110.626 36.132 110.44 35.6393C110.255 35.1501 110.159 34.6327 110.158 34.111V33.8168C110.157 33.2856 110.252 32.7584 110.44 32.2598C110.623 31.7692 110.898 31.316 111.25 30.9234C111.613 30.5225 112.061 30.2029 112.562 29.9866C113.134 29.7485 113.751 29.6308 114.372 29.6413C115.163 29.6165 115.945 29.8189 116.619 30.2232C117.216 30.5991 117.699 31.1233 118.019 31.7418C118.344 32.3772 118.51 33.0783 118.504 33.7881L118.511 34.5842ZM112.48 33.2509H116.219C116.188 33.0385 116.132 32.8302 116.051 32.6307C115.931 32.3107 115.712 32.0348 115.425 31.841C115.116 31.6507 114.754 31.556 114.389 31.5692C114.01 31.5572 113.636 31.6539 113.313 31.8474C113.014 32.0495 112.785 32.3363 112.657 32.669C112.578 32.8564 112.518 33.0515 112.48 33.2509Z" fill="white"/>
</svg>
