<svg width="505" height="518" viewBox="0 0 505 518" fill="none" xmlns="http://www.w3.org/2000/svg">
<g opacity="0.66">
<g opacity="0.05">
<path d="M291.092 192.315L169.047 160.064L123.272 205.502L93.2933 197.738L205.575 86.1785L235.492 94.0474L191.512 137.738L313.669 169.958L291.092 192.315Z" fill="black"/>
<path d="M199.377 274.347L164.563 293.246L107.277 249.959L82.0831 244.296L121.121 390.084L149.533 397.18L118.177 281.995L152.522 306.627L179.617 404.886L208.731 412.234L182.303 314.326L193.106 308.487L208.419 304.175L239.62 420.019L268.741 427.395L230.019 282.787L199.377 274.347ZM199.377 274.347L164.563 293.246L107.277 249.959L82.0831 244.296L121.121 390.084L149.533 397.18L118.177 281.995L152.522 306.627L179.617 404.886L208.731 412.234L182.303 314.326L193.106 308.487L208.419 304.175L239.62 420.019L268.741 427.395L230.019 282.787L199.377 274.347ZM199.377 274.347L164.563 293.246L107.277 249.959L82.0831 244.296L121.121 390.084L149.533 397.18L118.177 281.995L152.522 306.627L179.617 404.886L208.731 412.234L182.303 314.326L193.106 308.487L208.419 304.175L239.62 420.019L268.741 427.395L230.019 282.787L199.377 274.347ZM199.377 274.347L164.563 293.246L107.277 249.959L82.0831 244.296L121.121 390.084L149.533 397.18L118.177 281.995L152.522 306.627L179.617 404.886L208.731 412.234L182.303 314.326L193.106 308.487L208.419 304.175L239.62 420.019L268.741 427.395L230.019 282.787L199.377 274.347ZM385.328 90.1844L228.856 52.4813C218.506 49.989 207.644 50.1365 197.301 52.9099C186.957 55.6833 177.477 60.9904 169.759 68.3271L53.0324 179.283C44.975 186.955 39.1265 196.566 36.0901 207.126C33.0537 217.685 32.9392 228.811 35.7583 239.355L74.6194 384.485C77.4503 395.021 83.1093 404.592 91.0134 412.213C98.9174 419.833 108.781 425.227 119.587 427.838L276.116 465.526C286.465 468.018 297.328 467.871 307.671 465.097C318.014 462.324 327.495 457.017 335.213 449.68L451.94 338.724C460.002 331.059 465.857 321.453 468.9 310.897C471.942 300.341 472.063 289.217 469.249 278.672L430.388 133.542C427.56 122.997 421.898 113.417 413.987 105.792C406.075 98.1675 396.202 92.7742 385.385 90.1693L385.328 90.1844ZM297.211 426.147C297.867 428.587 297.854 431.162 297.174 433.612C296.495 436.063 295.173 438.305 293.339 440.113C291.506 441.921 289.226 443.232 286.728 443.916C284.229 444.6 281.599 444.632 279.101 444.009L121.058 404.608C115.749 403.283 110.91 400.6 107.035 396.832C103.16 393.064 100.387 388.346 98.9968 383.157L57.2097 227.1L228.291 267.772C236.751 269.534 244.523 273.546 250.758 279.368C256.992 285.191 261.45 292.599 263.643 300.785L297.211 426.147ZM215.516 247.773L63.8585 211.604C63.8585 211.604 67.0492 196.035 77.6425 185.809C87.4958 176.31 184.27 82.5336 184.27 82.5336C189.784 77.1871 196.609 73.3228 204.071 71.322C211.533 69.3213 219.374 69.2532 226.82 71.1246C226.82 71.1246 365.561 106.137 373.766 108.057C377.851 109.1 381.674 110.929 385.012 113.439C388.351 115.948 391.139 119.088 393.214 122.676L283.207 229.211C274.426 237.713 263.587 243.886 251.731 247.137C239.876 250.388 227.404 250.607 215.516 247.773V247.773ZM412.376 178.804L314.068 276.994L340.939 377.344L414.999 303.047L405.949 269.249L358.602 316.698L349.868 284.08L421.418 212.575L443.473 294.941C444.827 300.05 444.782 305.435 443.343 310.557C441.903 315.678 439.12 320.357 435.272 324.125L324.972 432.387L285.347 284.401C284 279.299 284.047 273.923 285.482 268.809C286.917 263.695 289.691 259.021 293.528 255.253L403.826 146.874L412.376 178.804ZM164.563 293.246L107.277 249.959L82.0831 244.296L121.121 390.084L149.533 397.18L118.177 281.995L152.522 306.627L179.617 404.886L208.731 412.234L182.303 314.326L193.106 308.487L208.419 304.175L239.62 420.019L268.741 427.395L230.019 282.787L199.405 274.34L164.563 293.246ZM199.377 274.347L164.563 293.246L107.277 249.959L82.0831 244.296L121.121 390.084L149.533 397.18L118.177 281.995L152.522 306.627L179.617 404.886L208.731 412.234L182.303 314.326L193.106 308.487L208.419 304.175L239.62 420.019L268.741 427.395L230.019 282.787L199.377 274.347ZM199.377 274.347L164.563 293.246L107.277 249.959L82.0831 244.296L121.121 390.084L149.533 397.18L118.177 281.995L152.522 306.627L179.617 404.886L208.731 412.234L182.303 314.326L193.106 308.487L208.419 304.175L239.62 420.019L268.741 427.395L230.019 282.787L199.377 274.347Z" fill="black"/>
</g>
</g>
</svg>
